<svg xmlns="http://www.w3.org/2000/svg" width="344" height="311" viewBox="0 0 344 311">
    <g fill="#66B2CC" fill-opacity=".3" opacity=".3">
        <path d="M120.2 140.945c-9.25-2.64-18.5-3.98-27.498-3.98-13.894 0-25.488 3.148-34.478 7.003 8.667-31.461 29.487-85.748 70.961-91.861 3.841-.567 6.989-3.32 8.037-7.028l9.065-32.149c.764-2.719.31-5.629-1.253-7.988-1.564-2.36-4.078-3.934-6.894-4.317C135.079.211 131.959 0 128.866 0 79.083 0 29.781 51.525 8.976 125.3c-12.211 43.282-15.792 108.354 14.29 149.312 16.833 22.919 41.391 35.157 72.993 36.38.13.004.256.008.386.008 38.993 0 73.57-26.04 84.088-63.318 6.284-22.286 3.443-45.657-8.005-65.826-11.326-19.942-29.98-34.477-52.529-40.911zM362.727 181.858c-11.326-19.946-29.98-34.481-52.53-40.915-9.25-2.64-18.5-3.98-27.493-3.98-13.895 0-25.493 3.148-34.483 7.004 8.667-31.462 29.487-85.748 70.966-91.86 3.841-.567 6.985-3.321 8.037-7.028l9.065-32.15c.764-2.718.311-5.628-1.253-7.988-1.56-2.359-4.073-3.933-6.894-4.316C325.085.211 321.965 0 318.868 0c-49.783 0-99.086 51.524-119.895 125.298-12.208 43.282-15.79 108.353 14.297 149.319 16.83 22.914 41.392 35.156 72.991 36.375.13.004.256.008.39.008 38.99 0 73.57-26.04 84.089-63.317 6.275-22.286 3.431-45.66-8.013-65.825z" transform="translate(-30)"/>
    </g>
</svg>
