<?xml version="1.0" encoding="UTF-8"?>
<svg width="72px" height="76px" viewBox="0 0 72 76" version="1.1" xmlns="http://www.w3.org/2000/svg" xmlns:xlink="http://www.w3.org/1999/xlink">
    <!-- Generator: sketchtool 53.2 (72643) - https://sketchapp.com -->
    <title>EAD09754-1E80-44EA-817C-BEFF65A5F787</title>
    <desc>Created with sketchtool.</desc>
    <g id="Page-1" stroke="none" stroke-width="1" fill="none" fill-rule="evenodd" stroke-linecap="round" stroke-linejoin="round">
        <g id="Services" transform="translate(-1097.000000, -610.000000)" stroke="#2787A7" stroke-width="2">
            <g id="Group-7" transform="translate(139.000000, 554.000000)">
                <g id="3" transform="translate(959.000000, 54.000000)">
                    <g id="Group">
                        <g id="Light">
                            <g id="Group-10" transform="translate(0.000000, 3.948718)">
                                <ellipse id="Oval" cx="59.5804196" cy="23.034188" rx="9.93006993" ry="9.87179487"></ellipse>
                                <path d="M9.93006993,9.59232693e-14 C4.44584374,9.51926097e-14 7.75961528e-13,4.41975311 7.74491582e-13,9.87179487 L7.74491582e-13,23.034188 L7.74491582e-13,23.034188 C7.79636392e-13,32.1209243 7.40973957,39.4871795 16.5501166,39.4871795 C25.6904935,39.4871795 33.1002331,32.1209243 33.1002331,23.034188 L33.1002331,9.87179487 C33.1002331,4.41975311 28.6543894,9.59232693e-14 23.1701632,9.59232693e-14" id="Shape"></path>
                                <path d="M16.5501166,39.4871795 L16.5501166,65.8119658 C16.5501166,69.4466603 19.5140124,72.3931624 23.1701632,72.3931624 C26.826314,72.3931624 29.7902098,69.4466603 29.7902098,65.8119658 L29.7902098,46.8317949 C29.7902098,42.2884267 33.4950796,38.6052991 38.0652681,38.6052991 C42.6354566,38.6052991 46.3403263,42.2884267 46.3403263,46.8317949 L46.3403263,59.2307692 C46.3403263,62.8654637 49.3042222,65.8119658 52.960373,65.8119658 C56.6165238,65.8119658 59.5804196,62.8654637 59.5804196,59.2307692 L59.5804196,32.9059829" id="Shape"></path>
                            </g>
                        </g>
                    </g>
                </g>
            </g>
        </g>
    </g>
</svg>