<?xml version="1.0" encoding="UTF-8"?>
<svg width="735px" height="579px" viewBox="0 0 735 579" version="1.1" xmlns="http://www.w3.org/2000/svg" xmlns:xlink="http://www.w3.org/1999/xlink">
    <!-- Generator: sketchtool 53.2 (72643) - https://sketchapp.com -->
    <title>D2E8E51A-B698-4027-B753-8EDE8A0B4107</title>
    <desc>Created with sketchtool.</desc>
    <defs>
        <path d="M630.838359,444.697446 C530.184849,534.19508 435.179068,578.962598 345.821015,579 C256.462963,579.037402 170.103259,534.345795 86.7419039,444.925182 C-30.3429891,244.344707 -28.4431469,107.497 92.4414303,34.3820605 C273.768296,-75.290348 420.84416,116.60551 610.838471,109.133485 C713.039484,105.114162 794.694991,219.136123 676.260619,386.732809 C662.480364,406.233273 647.33961,425.554818 630.838359,444.697446 Z" id="path-1"></path>
        <linearGradient x1="50%" y1="0%" x2="50%" y2="111.980574%" id="linearGradient-3">
            <stop stop-color="#BFBDFF" offset="0%"></stop>
            <stop stop-color="#EFEDFF" offset="100%"></stop>
        </linearGradient>
        <linearGradient x1="50%" y1="0%" x2="50%" y2="111.980574%" id="linearGradient-4">
            <stop stop-color="#BFBDFF" offset="0%"></stop>
            <stop stop-color="#EFEDFF" offset="100%"></stop>
        </linearGradient>
        <linearGradient x1="50%" y1="0%" x2="50%" y2="111.980574%" id="linearGradient-5">
            <stop stop-color="#BFBDFF" offset="0%"></stop>
            <stop stop-color="#EFEDFF" offset="100%"></stop>
        </linearGradient>
        <path d="M57.0891094,49.5053742 L48.1237808,20.0021901 C49.9612143,13.2051505 47.6673734,9.02812658 46.2863472,8.24863461 C44.9053211,7.46914264 41.4184982,6.91636315 41.4184982,13.3916166 C41.4184982,19.8668701 40.2297714,18.7642092 38.1198804,14.8451568 C36.0099893,10.9261044 30.6419534,11.4948263 29.8916918,6.38459319 C29.1414302,1.27436007 25.9814628,-2.3909243 18.4958329,1.87221139 C11.010203,6.13534708 5.31303156,6.27540127 2.53854699,6.38459319 C0.688890606,6.45738781 -0.149982221,6.84739824 0.0219285064,7.55462448 C5.87864364,36.3741262 15.5851442,50.8935559 29.1414302,51.1129134 L33.9335059,68.8974661 C43.2880098,66.3025988 49.661579,63.5845526 53.0542134,60.7433277 C56.4468478,57.9021028 57.7918131,54.1561183 57.0891094,49.5053742 Z" id="path-6"></path>
        <path d="M0.438080876,2.57493687 C9.6270272,0.85831229 16.6971594,3.91502971e-14 21.6484774,3.90798505e-14 C29.0754544,3.90798505e-14 42.4030065,3.242907 49.1266646,7.68770828 C47.8740292,10.5371602 45.9278069,11.9618862 43.2879976,11.9618862 C39.3282838,11.9618862 21.2563305,8.7437703 22.4354116,10.4655209 C23.6144927,12.1872715 27.3481212,16.651685 25.3287502,17.8350751 C23.3093791,19.0184652 16.2130712,11.9618862 14.1198041,11.9618862 C12.7242927,11.9618862 8.16371826,13.333278 0.438080876,16.0760616 L0.438080876,2.57493687 Z" id="path-8"></path>
    </defs>
    <g id="Page-1" stroke="none" stroke-width="1" fill="none" fill-rule="evenodd">
        <g id="Home-Page" transform="translate(-656.000000, -233.000000)">
            <g id="5.-Doctor-check-the-patient-condition" transform="translate(656.000000, 233.000000)">
                <g id="Rectangle" transform="translate(0.000000, 0.000000)">
                    <mask id="mask-2" fill="white">
                        <use xlink:href="#path-1"></use>
                    </mask>
                    <use id="Mask" fill="#09A4D8" fill-rule="nonzero" opacity="0.1" xlink:href="#path-1"></use>
                    <rect id="Rectangle-Copy-28" fill="#09A4D8" fill-rule="nonzero" opacity="0.1" mask="url(#mask-2)" x="0" y="-14.4911591" width="738.625154" height="322.428291"></rect>
                    <g id="Group-12" mask="url(#mask-2)">
                        <g transform="translate(141.381011, -59.776031)">
                            <polyline id="Path-169" stroke="#FFFFFF" points="8.24301159e-13 367.713163 7.37358847e-13 0 362.523186 0"></polyline>
                            <path d="M9.09494702e-13,91.1530951 L362.515413,91.1530951" id="Path-170" stroke="#FFFFFF"></path>
                            <path d="M9.09494702e-13,181.72284 L362.515413,181.72284" id="Path-170-Copy" stroke="#FFFFFF"></path>
                            <path d="M9.09494702e-13,272.292584 L362.515413,272.292584" id="Path-170-Copy-3" stroke="#FFFFFF"></path>
                            <path d="M9.09494702e-13,362.862329 L362.515413,362.862329" id="Path-170-Copy-2" stroke="#FFFFFF"></path>
                            <path d="M90.6366263,0 L90.6366263,367.713163" id="Path-171" stroke="#FFFFFF"></path>
                            <path d="M181.26548,0 L181.26548,367.713163" id="Path-171-Copy" stroke="#FFFFFF"></path>
                            <path d="M271.894333,0 L271.894333,367.713163" id="Path-171-Copy-2" stroke="#FFFFFF"></path>
                            <path d="M362.523186,0 L362.523186,367.713163" id="Path-171-Copy-3" stroke="#FFFFFF"></path>
                            <g id="Group-11" stroke="none" fill-rule="evenodd" transform="translate(45.314427, 43.473477)">
                                <rect id="Rectangle" stroke="#FFFFFF" x="29.9075216" y="0" width="12.6880395" height="47.0962672"></rect>
                                <rect id="Rectangle-Copy-19" stroke="#FFFFFF" x="15.4069051" y="8.15127701" width="12.6880395" height="38.9449902"></rect>
                                <rect id="Rectangle-Copy-20" stroke="#FFFFFF" x="0" y="3.62278978" width="12.6880395" height="43.4734774"></rect>
                            </g>
                            <g id="Group-11-Copy-2" stroke="none" fill-rule="evenodd" transform="translate(114.192355, 225.518664)">
                                <rect id="Rectangle" stroke="#FFFFFF" x="29.9075216" y="0" width="12.6880395" height="47.0962672"></rect>
                                <rect id="Rectangle-Copy-19" stroke="#FFFFFF" x="15.4069051" y="8.15127701" width="12.6880395" height="38.9449902"></rect>
                                <rect id="Rectangle-Copy-20" stroke="#FFFFFF" x="0" y="3.62278978" width="12.6880395" height="43.4734774"></rect>
                            </g>
                            <g id="Group-11-Copy" stroke="none" fill-rule="evenodd" transform="translate(294.543773, 134.948919)">
                                <rect id="Rectangle" stroke="#FFFFFF" x="29.9075216" y="0" width="12.6880395" height="47.0962672"></rect>
                                <rect id="Rectangle-Copy-19" stroke="#FFFFFF" x="15.4069051" y="8.15127701" width="12.6880395" height="38.9449902"></rect>
                                <rect id="Rectangle-Copy-20" stroke="#FFFFFF" x="0" y="3.62278978" width="12.6880395" height="43.4734774"></rect>
                            </g>
                            <g id="Group-10" stroke="none" fill-rule="evenodd" transform="translate(117.918381, 29.504190)">
                                <polygon id="Rectangle" stroke="#FFFFFF" points="0.805417166 32.0832368 39.7758241 32.0832368 35.2443814 61.0655551 5.33685983 61.0655551"></polygon>
                                <path d="M24.8848464,32.0832368 C17.1787692,10.6944123 17.7340795,2.31858588e-15 26.5507773,0 C35.3674752,0 36.7891159,10.6944123 30.8156996,32.0832368" id="Path-172" stroke="#FFFFFF"></path>
                                <path d="M17.4548343,32.0832368 C10.4183839,18.9185064 11.0980313,12.3361411 19.4937763,12.3361411" id="Path-173" stroke="#FFFFFF"></path>
                                <path d="M13.2605548,32.0832368 C13.4638989,19.8384064 11.6988342,11.1235727 7.96536053,5.93873588 C2.36515006,-1.83851941 -3.44040735,6.16292486 2.49344772,12.3361411 C6.44935109,16.4516187 8.27332203,23.0339839 7.96536053,32.0832368" id="Path-174" stroke="#FFFFFF"></path>
                                <path d="M27.8958483,32.0832368 L26.9641409,10.0032728" id="Path-178" stroke="#FFFFFF"></path>
                                <path d="M21.9913079,32.0832368 L18.0143359,21.631892" id="Path-179" stroke="#FFFFFF"></path>
                                <path d="M10.5705562,32.0832368 C10.6215041,21.9942996 9.54420346,15.4119344 7.33865439,12.3361411" id="Path-180" stroke="#FFFFFF"></path>
                                <path d="M4.0529627,53.5797409 L24.8848464,32.0832368" id="Path-181" stroke="#FFFFFF"></path>
                                <path d="M5.33685983,61.0655551 L32.8624293,32.0832368" id="Path-182" stroke="#FFFFFF"></path>
                            </g>
                            <g id="Group-10-Copy-2" stroke="none" fill-rule="evenodd" transform="translate(29.907522, 211.027505)">
                                <polygon id="Rectangle" stroke="#FFFFFF" points="0.805417166 32.0832368 39.7758241 32.0832368 35.2443814 61.0655551 5.33685983 61.0655551"></polygon>
                                <path d="M24.8848464,32.0832368 C17.1787692,10.6944123 17.7340795,2.31858588e-15 26.5507773,0 C35.3674752,0 36.7891159,10.6944123 30.8156996,32.0832368" id="Path-172" stroke="#FFFFFF"></path>
                                <path d="M17.4548343,32.0832368 C10.4183839,18.9185064 11.0980313,12.3361411 19.4937763,12.3361411" id="Path-173" stroke="#FFFFFF"></path>
                                <path d="M13.2605548,32.0832368 C13.4638989,19.8384064 11.6988342,11.1235727 7.96536053,5.93873588 C2.36515006,-1.83851941 -3.44040735,6.16292486 2.49344772,12.3361411 C6.44935109,16.4516187 8.27332203,23.0339839 7.96536053,32.0832368" id="Path-174" stroke="#FFFFFF"></path>
                                <path d="M27.8958483,32.0832368 L26.9641409,10.0032728" id="Path-178" stroke="#FFFFFF"></path>
                                <path d="M21.9913079,32.0832368 L18.0143359,21.631892" id="Path-179" stroke="#FFFFFF"></path>
                                <path d="M10.5705562,32.0832368 C10.6215041,21.9942996 9.54420346,15.4119344 7.33865439,12.3361411" id="Path-180" stroke="#FFFFFF"></path>
                                <path d="M4.0529627,53.5797409 L24.8848464,32.0832368" id="Path-181" stroke="#FFFFFF"></path>
                                <path d="M5.33685983,61.0655551 L32.8624293,32.0832368" id="Path-182" stroke="#FFFFFF"></path>
                            </g>
                            <g id="Group-10-Copy" stroke="none" fill-rule="evenodd" transform="translate(208.446363, 120.457760)">
                                <polygon id="Rectangle" stroke="#FFFFFF" points="0.805417166 32.0832368 39.7758241 32.0832368 35.2443814 61.0655551 5.33685983 61.0655551"></polygon>
                                <path d="M24.8848464,32.0832368 C17.1787692,10.6944123 17.7340795,2.31858588e-15 26.5507773,0 C35.3674752,0 36.7891159,10.6944123 30.8156996,32.0832368" id="Path-172" stroke="#FFFFFF"></path>
                                <path d="M17.4548343,32.0832368 C10.4183839,18.9185064 11.0980313,12.3361411 19.4937763,12.3361411" id="Path-173" stroke="#FFFFFF"></path>
                                <path d="M13.2605548,32.0832368 C13.4638989,19.8384064 11.6988342,11.1235727 7.96536053,5.93873588 C2.36515006,-1.83851941 -3.44040735,6.16292486 2.49344772,12.3361411 C6.44935109,16.4516187 8.27332203,23.0339839 7.96536053,32.0832368" id="Path-174" stroke="#FFFFFF"></path>
                                <path d="M27.8958483,32.0832368 L26.9641409,10.0032728" id="Path-178" stroke="#FFFFFF"></path>
                                <path d="M21.9913079,32.0832368 L18.0143359,21.631892" id="Path-179" stroke="#FFFFFF"></path>
                                <path d="M10.5705562,32.0832368 C10.6215041,21.9942996 9.54420346,15.4119344 7.33865439,12.3361411" id="Path-180" stroke="#FFFFFF"></path>
                                <path d="M4.0529627,53.5797409 L24.8848464,32.0832368" id="Path-181" stroke="#FFFFFF"></path>
                                <path d="M5.33685983,61.0655551 L32.8624293,32.0832368" id="Path-182" stroke="#FFFFFF"></path>
                            </g>
                            <g id="Group-9" stroke="none" fill-rule="evenodd" transform="translate(212.071517, 33.129653)">
                                <path d="M0,27.5520762 L34.4389642,27.5520762 L34.4389642,40.2206098 C34.4389642,49.7306672 26.7295395,57.4400919 17.2194821,57.4400919 L17.2194821,57.4400919 C7.70942475,57.4400919 1.16464613e-15,49.7306672 0,40.2206098 L0,27.5520762 Z" id="Rectangle" stroke="#FFFFFF"></path>
                                <path d="M17.8978474,27.5520762 L17.8978474,20.6869684 L15.3944852,20.6869684 C13.2093276,20.6869684 11.4379074,18.9155482 11.4379074,16.7303906 L11.4379074,14.3887979 C11.4379074,13.4968663 12.1609608,12.7738128 13.0528924,12.7738128 L13.0528924,12.7738128 C13.944824,12.7738128 14.6678774,13.4968663 14.6678774,14.3887979 L14.6678774,15.3419915 C14.6678774,16.7603574 15.8176901,17.9101702 17.2360561,17.9101702 L17.8978474,17.9101702 L17.8978474,5.44228185 L17.3890183,5.44228185 C15.8861737,5.44228185 14.6678774,4.22398556 14.6678774,2.72114092 L14.6678774,1.61498501 C14.6678774,0.723053417 15.3909308,2.90296438e-14 16.2828624,2.88657986e-14 L16.2828624,2.88657986e-14 C17.174794,2.87019535e-14 17.8978474,0.723053417 17.8978474,1.61498501 L17.8978474,2.15461214 L17.8978474,2.15461214 C19.7656911,2.15461214 21.2798776,3.66879862 21.2798776,5.5366423 L21.2798776,11.7684945 L24.5435212,11.7684945 C26.0298471,11.7684945 27.2347523,10.5635894 27.2347523,9.07726347 L27.2347523,8.08687996 C27.2347523,7.14752779 27.9962477,6.38603239 28.9355999,6.38603239 L28.9355999,6.38603239 C29.874952,6.38603239 30.6364474,7.14752779 30.6364474,8.08687996 L30.6364474,10.3195853 C30.6364474,12.4920265 28.8753358,14.2531381 26.7028946,14.2531381 L21.2798776,14.2531381 L21.2798776,21.6343501 L23.3060508,21.6343501 C24.5242356,21.6343501 25.5117695,20.6468162 25.5117695,19.4286314 L25.5117695,18.6681879 C25.5117695,17.8699845 26.1588413,17.2229127 26.9570447,17.2229127 L26.9570447,17.2229127 C27.7552482,17.2229127 28.4023199,17.8699845 28.4023199,18.6681879 L28.4023199,21.0622617 C28.4023199,23.1826756 26.6833848,24.9016107 24.5629709,24.9016107 L21.2798776,24.9016107 L21.2798776,27.5520762 L17.8978474,27.5520762 Z" id="Path-175" stroke="#FFFFFF"></path>
                                <path d="M1.88727206,48.5011912 L22.1557275,27.5520762" id="Path-176" stroke="#FFFFFF"></path>
                                <path d="M6.75258537,54.0672109 L30.6364474,27.5520762" id="Path-177" stroke="#FFFFFF"></path>
                            </g>
                            <g id="Group-9-Copy-2" stroke="none" fill-rule="evenodd" transform="translate(211.165228, 214.650295)">
                                <path d="M0,27.5520762 L34.4389642,27.5520762 L34.4389642,40.2206098 C34.4389642,49.7306672 26.7295395,57.4400919 17.2194821,57.4400919 L17.2194821,57.4400919 C7.70942475,57.4400919 1.16464613e-15,49.7306672 0,40.2206098 L0,27.5520762 Z" id="Rectangle" stroke="#FFFFFF"></path>
                                <path d="M17.8978474,27.5520762 L17.8978474,20.6869684 L15.3944852,20.6869684 C13.2093276,20.6869684 11.4379074,18.9155482 11.4379074,16.7303906 L11.4379074,14.3887979 C11.4379074,13.4968663 12.1609608,12.7738128 13.0528924,12.7738128 L13.0528924,12.7738128 C13.944824,12.7738128 14.6678774,13.4968663 14.6678774,14.3887979 L14.6678774,15.3419915 C14.6678774,16.7603574 15.8176901,17.9101702 17.2360561,17.9101702 L17.8978474,17.9101702 L17.8978474,5.44228185 L17.3890183,5.44228185 C15.8861737,5.44228185 14.6678774,4.22398556 14.6678774,2.72114092 L14.6678774,1.61498501 C14.6678774,0.723053417 15.3909308,2.90296438e-14 16.2828624,2.88657986e-14 L16.2828624,2.88657986e-14 C17.174794,2.87019535e-14 17.8978474,0.723053417 17.8978474,1.61498501 L17.8978474,2.15461214 L17.8978474,2.15461214 C19.7656911,2.15461214 21.2798776,3.66879862 21.2798776,5.5366423 L21.2798776,11.7684945 L24.5435212,11.7684945 C26.0298471,11.7684945 27.2347523,10.5635894 27.2347523,9.07726347 L27.2347523,8.08687996 C27.2347523,7.14752779 27.9962477,6.38603239 28.9355999,6.38603239 L28.9355999,6.38603239 C29.874952,6.38603239 30.6364474,7.14752779 30.6364474,8.08687996 L30.6364474,10.3195853 C30.6364474,12.4920265 28.8753358,14.2531381 26.7028946,14.2531381 L21.2798776,14.2531381 L21.2798776,21.6343501 L23.3060508,21.6343501 C24.5242356,21.6343501 25.5117695,20.6468162 25.5117695,19.4286314 L25.5117695,18.6681879 C25.5117695,17.8699845 26.1588413,17.2229127 26.9570447,17.2229127 L26.9570447,17.2229127 C27.7552482,17.2229127 28.4023199,17.8699845 28.4023199,18.6681879 L28.4023199,21.0622617 C28.4023199,23.1826756 26.6833848,24.9016107 24.5629709,24.9016107 L21.2798776,24.9016107 L21.2798776,27.5520762 L17.8978474,27.5520762 Z" id="Path-175" stroke="#FFFFFF"></path>
                                <path d="M1.88727206,48.5011912 L22.1557275,27.5520762" id="Path-176" stroke="#FFFFFF"></path>
                                <path d="M6.75258537,54.0672109 L30.6364474,27.5520762" id="Path-177" stroke="#FFFFFF"></path>
                            </g>
                            <g id="Group-9-Copy" stroke="none" fill-rule="evenodd" transform="translate(30.813810, 124.080550)">
                                <path d="M0,27.5520762 L34.4389642,27.5520762 L34.4389642,40.2206098 C34.4389642,49.7306672 26.7295395,57.4400919 17.2194821,57.4400919 L17.2194821,57.4400919 C7.70942475,57.4400919 1.16464613e-15,49.7306672 0,40.2206098 L0,27.5520762 Z" id="Rectangle" stroke="#FFFFFF"></path>
                                <path d="M17.8978474,27.5520762 L17.8978474,20.6869684 L15.3944852,20.6869684 C13.2093276,20.6869684 11.4379074,18.9155482 11.4379074,16.7303906 L11.4379074,14.3887979 C11.4379074,13.4968663 12.1609608,12.7738128 13.0528924,12.7738128 L13.0528924,12.7738128 C13.944824,12.7738128 14.6678774,13.4968663 14.6678774,14.3887979 L14.6678774,15.3419915 C14.6678774,16.7603574 15.8176901,17.9101702 17.2360561,17.9101702 L17.8978474,17.9101702 L17.8978474,5.44228185 L17.3890183,5.44228185 C15.8861737,5.44228185 14.6678774,4.22398556 14.6678774,2.72114092 L14.6678774,1.61498501 C14.6678774,0.723053417 15.3909308,2.90296438e-14 16.2828624,2.88657986e-14 L16.2828624,2.88657986e-14 C17.174794,2.87019535e-14 17.8978474,0.723053417 17.8978474,1.61498501 L17.8978474,2.15461214 L17.8978474,2.15461214 C19.7656911,2.15461214 21.2798776,3.66879862 21.2798776,5.5366423 L21.2798776,11.7684945 L24.5435212,11.7684945 C26.0298471,11.7684945 27.2347523,10.5635894 27.2347523,9.07726347 L27.2347523,8.08687996 C27.2347523,7.14752779 27.9962477,6.38603239 28.9355999,6.38603239 L28.9355999,6.38603239 C29.874952,6.38603239 30.6364474,7.14752779 30.6364474,8.08687996 L30.6364474,10.3195853 C30.6364474,12.4920265 28.8753358,14.2531381 26.7028946,14.2531381 L21.2798776,14.2531381 L21.2798776,21.6343501 L23.3060508,21.6343501 C24.5242356,21.6343501 25.5117695,20.6468162 25.5117695,19.4286314 L25.5117695,18.6681879 C25.5117695,17.8699845 26.1588413,17.2229127 26.9570447,17.2229127 L26.9570447,17.2229127 C27.7552482,17.2229127 28.4023199,17.8699845 28.4023199,18.6681879 L28.4023199,21.0622617 C28.4023199,23.1826756 26.6833848,24.9016107 24.5629709,24.9016107 L21.2798776,24.9016107 L21.2798776,27.5520762 L17.8978474,27.5520762 Z" id="Path-175" stroke="#FFFFFF"></path>
                                <path d="M1.88727206,48.5011912 L22.1557275,27.5520762" id="Path-176" stroke="#FFFFFF"></path>
                                <path d="M6.75258537,54.0672109 L30.6364474,27.5520762" id="Path-177" stroke="#FFFFFF"></path>
                            </g>
                            <g id="Group-8" stroke="none" fill-rule="evenodd" transform="translate(274.605425, 47.096267)">
                                <rect id="Rectangle" stroke="#FFFFFF" x="0" y="0" width="8.15659679" height="43.4734774"></rect>
                                <rect id="Rectangle-Copy-21" stroke="#FFFFFF" x="9.96917386" y="0" width="8.15659679" height="43.4734774"></rect>
                                <rect id="Rectangle-Copy-22" stroke="#FFFFFF" x="19.9383477" y="0" width="8.15659679" height="43.4734774"></rect>
                                <rect id="Rectangle-Copy-23" stroke="#FFFFFF" x="29.9075216" y="0" width="8.15659679" height="43.4734774"></rect>
                                <rect id="Rectangle-Copy-24" stroke="#FFFFFF" x="39.8766954" y="0" width="8.15659679" height="43.4734774"></rect>
                                <rect id="Rectangle-Copy-25" stroke="#FFFFFF" x="49.8458693" y="0" width="8.15659679" height="43.4734774"></rect>
                                <rect id="Rectangle-Copy-26" stroke="#FFFFFF" x="59.8150432" y="0" width="8.15659679" height="43.4734774"></rect>
                                <rect id="Rectangle-Copy-27" stroke="#FFFFFF" x="69.784217" y="0" width="8.15659679" height="43.4734774"></rect>
                            </g>
                            <g id="Group-8-Copy-2" stroke="none" fill-rule="evenodd" transform="translate(274.605425, 227.330059)">
                                <rect id="Rectangle" stroke="#FFFFFF" x="0" y="0" width="8.15659679" height="43.4734774"></rect>
                                <rect id="Rectangle-Copy-21" stroke="#FFFFFF" x="9.96917386" y="0" width="8.15659679" height="43.4734774"></rect>
                                <rect id="Rectangle-Copy-22" stroke="#FFFFFF" x="19.9383477" y="0" width="8.15659679" height="43.4734774"></rect>
                                <rect id="Rectangle-Copy-23" stroke="#FFFFFF" x="29.9075216" y="0" width="8.15659679" height="43.4734774"></rect>
                                <rect id="Rectangle-Copy-24" stroke="#FFFFFF" x="39.8766954" y="0" width="8.15659679" height="43.4734774"></rect>
                                <rect id="Rectangle-Copy-25" stroke="#FFFFFF" x="49.8458693" y="0" width="8.15659679" height="43.4734774"></rect>
                                <rect id="Rectangle-Copy-26" stroke="#FFFFFF" x="59.8150432" y="0" width="8.15659679" height="43.4734774"></rect>
                                <rect id="Rectangle-Copy-27" stroke="#FFFFFF" x="69.784217" y="0" width="8.15659679" height="43.4734774"></rect>
                            </g>
                            <g id="Group-8-Copy" stroke="none" fill-rule="evenodd" transform="translate(94.254007, 138.571709)">
                                <rect id="Rectangle" stroke="#FFFFFF" x="0" y="0" width="8.15659679" height="43.4734774"></rect>
                                <rect id="Rectangle-Copy-21" stroke="#FFFFFF" x="9.96917386" y="0" width="8.15659679" height="43.4734774"></rect>
                                <rect id="Rectangle-Copy-22" stroke="#FFFFFF" x="19.9383477" y="0" width="8.15659679" height="43.4734774"></rect>
                                <rect id="Rectangle-Copy-23" stroke="#FFFFFF" x="29.9075216" y="0" width="8.15659679" height="43.4734774"></rect>
                                <rect id="Rectangle-Copy-24" stroke="#FFFFFF" x="39.8766954" y="0" width="8.15659679" height="43.4734774"></rect>
                                <rect id="Rectangle-Copy-25" stroke="#FFFFFF" x="49.8458693" y="0" width="8.15659679" height="43.4734774"></rect>
                                <rect id="Rectangle-Copy-26" stroke="#FFFFFF" x="59.8150432" y="0" width="8.15659679" height="43.4734774"></rect>
                                <rect id="Rectangle-Copy-27" stroke="#FFFFFF" x="69.784217" y="0" width="8.15659679" height="43.4734774"></rect>
                            </g>
                        </g>
                    </g>
                    <g id="Group-12-Copy" mask="url(#mask-2)">
                        <g transform="translate(-9.969174, -59.776031)">
                            <path d="M96.972873,91.1530951 L151.350185,91.1530951" id="Path-170" stroke="#FFFFFF"></path>
                            <path d="M15.4069051,181.72284 L151.350185,181.72284" id="Path-170-Copy" stroke="#FFFFFF"></path>
                            <path d="M1.81257707,272.292584 L151.350185,272.292584" id="Path-170-Copy-3" stroke="#FFFFFF"></path>
                            <path d="M28.0949445,362.862329 L151.350185,362.862329" id="Path-170-Copy-2" stroke="#FFFFFF"></path>
                            <path d="M60.7291047,0 L60.7291047,367.713163" id="Path-171-Copy-2" stroke="#FFFFFF"></path>
                            <g id="Group-11-Copy" stroke="none" fill-rule="evenodd" transform="translate(83.378545, 134.948919)">
                                <rect id="Rectangle" stroke="#FFFFFF" x="29.9075216" y="0" width="12.6880395" height="47.0962672"></rect>
                                <rect id="Rectangle-Copy-19" stroke="#FFFFFF" x="15.4069051" y="8.15127701" width="12.6880395" height="38.9449902"></rect>
                                <rect id="Rectangle-Copy-20" stroke="#FFFFFF" x="0" y="3.62278978" width="12.6880395" height="43.4734774"></rect>
                            </g>
                            <g id="Group-9-Copy-2" stroke="none" fill-rule="evenodd" transform="translate(0.000000, 214.650295)">
                                <path d="M0,27.5520762 L34.4389642,27.5520762 L34.4389642,40.2206098 C34.4389642,49.7306672 26.7295395,57.4400919 17.2194821,57.4400919 L17.2194821,57.4400919 C7.70942475,57.4400919 8.27007349e-15,49.7306672 7.10542736e-15,40.2206098 L0,27.5520762 Z" id="Rectangle" stroke="#FFFFFF"></path>
                                <path d="M17.8978474,27.5520762 L17.8978474,20.6869684 L15.3944852,20.6869684 C13.2093276,20.6869684 11.4379074,18.9155482 11.4379074,16.7303906 L11.4379074,14.3887979 C11.4379074,13.4968663 12.1609608,12.7738128 13.0528924,12.7738128 L13.0528924,12.7738128 C13.944824,12.7738128 14.6678774,13.4968663 14.6678774,14.3887979 L14.6678774,15.3419915 C14.6678774,16.7603574 15.8176901,17.9101702 17.2360561,17.9101702 L17.8978474,17.9101702 L17.8978474,5.44228185 L17.3890183,5.44228185 C15.8861737,5.44228185 14.6678774,4.22398556 14.6678774,2.72114092 L14.6678774,1.61498501 C14.6678774,0.723053417 15.3909308,2.90296438e-14 16.2828624,2.88657986e-14 L16.2828624,2.88657986e-14 C17.174794,2.87019535e-14 17.8978474,0.723053417 17.8978474,1.61498501 L17.8978474,2.15461214 L17.8978474,2.15461214 C19.7656911,2.15461214 21.2798776,3.66879862 21.2798776,5.5366423 L21.2798776,11.7684945 L24.5435212,11.7684945 C26.0298471,11.7684945 27.2347523,10.5635894 27.2347523,9.07726347 L27.2347523,8.08687996 C27.2347523,7.14752779 27.9962477,6.38603239 28.9355999,6.38603239 L28.9355999,6.38603239 C29.874952,6.38603239 30.6364474,7.14752779 30.6364474,8.08687996 L30.6364474,10.3195853 C30.6364474,12.4920265 28.8753358,14.2531381 26.7028946,14.2531381 L21.2798776,14.2531381 L21.2798776,21.6343501 L23.3060508,21.6343501 C24.5242356,21.6343501 25.5117695,20.6468162 25.5117695,19.4286314 L25.5117695,18.6681879 C25.5117695,17.8699845 26.1588413,17.2229127 26.9570447,17.2229127 L26.9570447,17.2229127 C27.7552482,17.2229127 28.4023199,17.8699845 28.4023199,18.6681879 L28.4023199,21.0622617 C28.4023199,23.1826756 26.6833848,24.9016107 24.5629709,24.9016107 L21.2798776,24.9016107 L21.2798776,27.5520762 L17.8978474,27.5520762 Z" id="Path-175" stroke="#FFFFFF"></path>
                                <path d="M1.88727206,48.5011912 L22.1557275,27.5520762" id="Path-176" stroke="#FFFFFF"></path>
                                <path d="M6.75258537,54.0672109 L30.6364474,27.5520762" id="Path-177" stroke="#FFFFFF"></path>
                            </g>
                            <g id="Group-8" stroke="none" fill-rule="evenodd" transform="translate(63.440197, 47.096267)">
                                <rect id="Rectangle" stroke="#FFFFFF" x="0" y="0" width="8.15659679" height="43.4734774"></rect>
                                <rect id="Rectangle-Copy-21" stroke="#FFFFFF" x="9.96917386" y="0" width="8.15659679" height="43.4734774"></rect>
                                <rect id="Rectangle-Copy-22" stroke="#FFFFFF" x="19.9383477" y="0" width="8.15659679" height="43.4734774"></rect>
                                <rect id="Rectangle-Copy-23" stroke="#FFFFFF" x="29.9075216" y="0" width="8.15659679" height="43.4734774"></rect>
                                <rect id="Rectangle-Copy-24" stroke="#FFFFFF" x="39.8766954" y="0" width="8.15659679" height="43.4734774"></rect>
                                <rect id="Rectangle-Copy-25" stroke="#FFFFFF" x="49.8458693" y="0" width="8.15659679" height="43.4734774"></rect>
                                <rect id="Rectangle-Copy-26" stroke="#FFFFFF" x="59.8150432" y="0" width="8.15659679" height="43.4734774"></rect>
                                <rect id="Rectangle-Copy-27" stroke="#FFFFFF" x="69.784217" y="0" width="8.15659679" height="43.4734774"></rect>
                            </g>
                            <g id="Group-8-Copy-2" stroke="none" fill-rule="evenodd" transform="translate(63.440197, 227.330059)">
                                <rect id="Rectangle" stroke="#FFFFFF" x="0" y="0" width="8.15659679" height="43.4734774"></rect>
                                <rect id="Rectangle-Copy-21" stroke="#FFFFFF" x="9.96917386" y="0" width="8.15659679" height="43.4734774"></rect>
                                <rect id="Rectangle-Copy-22" stroke="#FFFFFF" x="19.9383477" y="0" width="8.15659679" height="43.4734774"></rect>
                                <rect id="Rectangle-Copy-23" stroke="#FFFFFF" x="29.9075216" y="0" width="8.15659679" height="43.4734774"></rect>
                                <rect id="Rectangle-Copy-24" stroke="#FFFFFF" x="39.8766954" y="0" width="8.15659679" height="43.4734774"></rect>
                                <rect id="Rectangle-Copy-25" stroke="#FFFFFF" x="49.8458693" y="0" width="8.15659679" height="43.4734774"></rect>
                                <rect id="Rectangle-Copy-26" stroke="#FFFFFF" x="59.8150432" y="0" width="8.15659679" height="43.4734774"></rect>
                                <rect id="Rectangle-Copy-27" stroke="#FFFFFF" x="69.784217" y="0" width="8.15659679" height="43.4734774"></rect>
                            </g>
                        </g>
                    </g>
                    <path d="M4.09371147,230.047151 L138.193588,230.047151 C140.955012,230.047151 143.193588,232.285728 143.193588,235.047151 L143.193588,240.444008 C143.193588,243.205432 140.955012,245.444008 138.193588,245.444008 L4.09371147,245.444008 C1.33228772,245.444008 -0.906288533,243.205432 -0.906288533,240.444008 L-0.906288533,235.047151 C-0.906288533,232.285728 1.33228772,230.047151 4.09371147,230.047151 Z" fill="#948CFF" mask="url(#mask-2)"></path>
                    <g id="Group-3" mask="url(#mask-2)">
                        <g transform="translate(-8.156597, 141.288802)">
                            <rect id="Rectangle" fill="#B3ACFF" x="0" y="0" width="115.098644" height="74.2671906" rx="5"></rect>
                            <polygon id="Rectangle" fill="#948BFF" points="49.392725 45.2487931 65.7059186 45.2487931 68.8779285 85.1355599 47.1270037 85.1355599"></polygon>
                            <ellipse id="Oval" fill="#B3ACFF" cx="58.0024661" cy="68.8330059" rx="5.4377312" ry="5.43418468"></ellipse>
                            <rect id="Rectangle" fill="#948BFF" x="40.782984" y="85.1355599" width="34.4389642" height="3.62278978"></rect>
                        </g>
                    </g>
                    <path d="M106.942047,244.081745 L131.411837,444.613124" id="Path-189" stroke="#948BFF" stroke-width="6" stroke-linecap="round" mask="url(#mask-2)"></path>
                    <path d="M53.4710234,244.081745 L77.9408138,444.613124" id="Path-189-Copy-2" stroke="#948BFF" stroke-width="6" stroke-linecap="round" mask="url(#mask-2)" transform="translate(65.705919, 344.347435) scale(-1, 1) translate(-65.705919, -344.347435) "></path>
                    <path d="M143.193588,238.198428 L2.05232591,238.198428" id="Path-190" stroke="#B3ACFF" mask="url(#mask-2)"></path>
                    <path d="M113.286067,307.937132 L13.9635713,307.937132" id="Path-191" stroke="#948BFF" mask="url(#mask-2)"></path>
                </g>
                <g id="Flowers" transform="translate(574.586930, 288.917485)">
                    <path d="M53.5910774,98.7119603 C50.58473,69.1804975 38.3455739,56.9137757 16.8736091,61.9117951" id="Path-183" stroke="#20008C" stroke-width="0.629999973"></path>
                    <path d="M9.44877452,57.1100917 C2.19931418,60.1553238 -2.48484084,79.0956554 1.40191851,89.0579068 C5.28867787,99.0201583 26.4008199,80.9610051 27.6841877,70.6826485 C28.5397663,63.8304107 26.0867069,60.7352666 20.3250096,61.3972163 C17.9071598,56.5089785 14.2817481,55.079937 9.44877452,57.1100917 Z" id="Path-184" fill="url(#linearGradient-3)"></path>
                    <path d="M12.0356112,22.2529928 C2.8209938,26.1419448 -3.13292473,50.3299343 1.80744306,63.0523532 C6.74781084,75.7747721 33.5829547,52.7121026 35.2142131,39.5859976 C36.3017188,30.8352609 33.1836931,26.8825681 25.8601361,27.7279192 C22.7868644,21.4853336 18.1786894,19.6603581 12.0356112,22.2529928 Z" id="Path-184-Copy" fill="url(#linearGradient-4)"></path>
                    <path d="M25.8601361,27.7279192 C41.7885563,21.4148806 53.0964021,24.9730006 59.7836735,38.4022794 C66.4709449,51.8315581 66.4709449,71.9347851 59.7836735,98.7119603" id="Path-185" stroke="#20008C" stroke-width="0.629999973"></path>
                    <path d="M111.021823,98.7119603 C108.015476,69.1804975 95.7763196,56.9137757 74.3043548,61.9117951" id="Path-183" stroke="#20008C" stroke-width="0.629999973" transform="translate(92.663089, 79.769294) scale(-1, 1) translate(-92.663089, -79.769294) "></path>
                    <path d="M109.494086,57.1100917 C102.244626,60.1553238 97.560471,79.0956554 101.44723,89.0579068 C105.33399,99.0201583 126.446132,80.9610051 127.7295,70.6826485 C128.585078,63.8304107 126.132019,60.7352666 120.370321,61.3972163 C117.952472,56.5089785 114.32706,55.079937 109.494086,57.1100917 Z" id="Path-184" fill="url(#linearGradient-3)" transform="translate(113.970372, 74.088420) scale(-1, 1) translate(-113.970372, -74.088420) "></path>
                    <path d="M104.48042,22.2529928 C95.2658022,26.1419448 89.3118836,50.3299343 94.2522514,63.0523532 C99.1926192,75.7747721 126.027763,52.7121026 127.659022,39.5859976 C128.746527,30.8352609 125.628501,26.8825681 118.304944,27.7279192 C115.231673,21.4853336 110.623498,19.6603581 104.48042,22.2529928 Z" id="Path-184-Copy" fill="url(#linearGradient-4)" transform="translate(110.170120, 43.935381) scale(-1, 1) translate(-110.170120, -43.935381) "></path>
                    <path d="M60.350698,6.09198786 C78.6149015,-4.35384582 81.0594905,27.0986501 67.6844651,100.449476" id="Path-188" stroke="#20008C" stroke-width="0.629999973"></path>
                    <path d="M50.5835182,0.893602405 C43.3340579,3.93883444 38.6499028,22.8791661 42.5366622,32.8414175 C46.4234215,42.803669 67.5355636,24.7445157 68.8189314,14.4661591 C69.67451,7.61392139 67.2214506,4.51877732 61.4597533,5.18072693 C59.0419035,0.292489227 55.4164918,-1.13655228 50.5835182,0.893602405 Z" id="Path-184-Copy-2" fill="url(#linearGradient-3)"></path>
                    <path d="M39.2605394,98.7119603 L96.1083908,98.7119603 C97.8480877,98.7119603 99.2583907,100.122263 99.2583907,101.86196 C99.2583907,102.06752 99.2382694,102.272586 99.1983148,102.474226 L89.0274186,153.803752 C88.7351534,155.278729 87.4411485,156.341486 85.9374946,156.341486 L49.4314355,156.341486 C47.9277817,156.341486 46.6337768,155.278729 46.3415116,153.803752 L36.1706154,102.474226 C35.8324705,100.767708 36.941756,99.1101811 38.6482739,98.7720362 C38.8499134,98.7320816 39.0549796,98.7119603 39.2605394,98.7119603 Z" id="Rectangle" fill="#948CFF"></path>
                    <path d="M63.0963051,27.7279192 C79.0247253,21.4148806 90.3325711,24.9730006 97.0198425,38.4022794 C103.707114,51.8315581 103.707114,71.9347851 97.0198425,98.7119603" id="Path-185" stroke="#20008C" stroke-width="0.629999973" transform="translate(82.565801, 61.705890) scale(-1, 1) translate(-82.565801, -61.705890) "></path>
                    <path d="M69.4797695,98.7119603 C45.7494956,65.6025152 45.1510608,46.1979985 67.6844651,40.4984102" id="Path-187" stroke="#20008C" stroke-width="0.629999973"></path>
                    <path d="M67.8045295,40.6868255 C58.5800168,34.1450384 51.6251229,34.5745206 46.9398479,41.9752722 C39.9119353,53.0763996 61.8133083,84.2382862 73.7822997,83.4159337 C85.7512911,82.5935811 96.8187481,45.941237 87.3170034,38.0242966 C80.982507,32.7463362 74.478349,33.6338459 67.8045295,40.6868255 Z" id="Path-186" fill="url(#linearGradient-5)"></path>
                </g>
                <g id="Chair-" transform="translate(146.818742, 165.742633)">
                    <path d="M16.1738988,58.8009836 L13.1595008,130.456285 C12.8941341,136.764322 17.562102,142.199085 23.837929,142.88883 L76.9578017,148.726976 C81.2779343,149.201781 85.626282,149.36986 89.9701755,149.229951 L162.450837,146.895476 C165.173585,146.807782 167.309718,144.529467 167.222023,141.806719 C167.210665,141.454091 167.161507,141.1037 167.075392,140.76156 L167.075392,140.76156 L142.233572,137.446 C134.140325,136.365819 127.15143,131.245077 123.682427,123.853633 L91.6263451,55.5513766 C88.1669294,48.1803604 80.7583704,43.4734774 72.6159238,43.4734774 L32.1597598,43.4734774 C23.5847772,43.4734774 16.5343128,50.2335786 16.1738988,58.8009836 Z" id="Path-112-Copy" fill="#948BFF"></path>
                    <polyline id="Path-113" stroke="#948BFF" stroke-width="5" stroke-linecap="round" points="71.1009249 277.143418 76.1282367 146.46221 58.1270058 144.911591 0 277.143418"></polyline>
                    <polyline id="Path-113-Copy" stroke="#948BFF" stroke-width="5" stroke-linecap="round" transform="translate(144.099877, 211.027505) scale(-1, 1) translate(-144.099877, -211.027505) " points="177.136683 277.143418 182.163995 146.46221 164.162764 144.911591 106.035758 277.143418"></polyline>
                    <path d="M13.4321325,15.9017958 L12.7544439,126.312725 C12.7167102,132.460413 17.3312402,137.642261 23.4421866,138.314436 L76.984409,144.203833 C81.2687352,144.67509 85.5808825,144.844685 89.8889863,144.711366 L169.634135,142.243572 C170.186155,142.226489 170.619808,141.76514 170.602725,141.213119 C170.588046,140.738792 170.242016,140.340103 169.774474,140.258826 L143.187956,135.63706 C134.617067,134.147108 127.523486,128.135762 124.647699,119.925406 L87.5662224,14.0579912 C84.6168569,5.63756857 76.6688357,-1.63894677e-15 67.746825,0 L29.4318311,3.55271368e-15 C20.6336021,5.16892212e-15 13.4861339,7.10373259 13.4321325,15.9017958 Z" id="Path-112" fill="#B3ACFF"></path>
                    <polyline id="Path-114" stroke="#948BFF" points="141.381011 177.516699 108.596078 221.375564 72.1157991 185.807015 23.5635018 227.330059"></polyline>
                    <polyline id="Path-115" stroke="#948BFF" points="46.2207152 174.799607 73.2230161 222.801572 108.300238 190.488369 157.694205 222.801572"></polyline>
                </g>
                <g id="Chair-" transform="translate(532.026510, 304.742633) scale(-1, 1) translate(-532.026510, -304.742633) translate(440.526510, 165.742633)">
                    <path d="M16.1738988,58.8009836 L13.1595008,130.456285 C12.8941341,136.764322 17.562102,142.199085 23.837929,142.88883 L76.9578017,148.726976 C81.2779343,149.201781 85.626282,149.36986 89.9701755,149.229951 L162.450837,146.895476 C165.173585,146.807782 167.309718,144.529467 167.222023,141.806719 C167.210665,141.454091 167.161507,141.1037 167.075392,140.76156 L167.075392,140.76156 L142.233572,137.446 C134.140325,136.365819 127.15143,131.245077 123.682427,123.853633 L91.6263451,55.5513766 C88.1669294,48.1803604 80.7583704,43.4734774 72.6159238,43.4734774 L32.1597598,43.4734774 C23.5847772,43.4734774 16.5343128,50.2335786 16.1738988,58.8009836 Z" id="Path-112-Copy" fill="#948BFF"></path>
                    <polyline id="Path-113" stroke="#948BFF" stroke-width="5" stroke-linecap="round" points="71.1009249 277.143418 76.1282367 146.46221 58.1270058 144.911591 0 277.143418"></polyline>
                    <polyline id="Path-113-Copy" stroke="#948BFF" stroke-width="5" stroke-linecap="round" transform="translate(144.099877, 211.027505) scale(-1, 1) translate(-144.099877, -211.027505) " points="177.136683 277.143418 182.163995 146.46221 164.162764 144.911591 106.035758 277.143418"></polyline>
                    <path d="M13.4321325,15.9017958 L12.7544439,126.312725 C12.7167102,132.460413 17.3312402,137.642261 23.4421866,138.314436 L76.984409,144.203833 C81.2687352,144.67509 85.5808825,144.844685 89.8889863,144.711366 L169.634135,142.243572 C170.186155,142.226489 170.619808,141.76514 170.602725,141.213119 C170.588046,140.738792 170.242016,140.340103 169.774474,140.258826 L143.187956,135.63706 C134.617067,134.147108 127.523486,128.135762 124.647699,119.925406 L87.5662224,14.0579912 C84.6168569,5.63756857 76.6688357,-5.19166045e-15 67.746825,-3.55271368e-15 L29.4318311,0 C20.6336021,1.61620844e-15 13.4861339,7.10373259 13.4321325,15.9017958 Z" id="Path-112" fill="#B3ACFF"></path>
                    <polyline id="Path-114" stroke="#948BFF" points="141.381011 177.516699 108.596078 221.375564 72.1157991 185.807015 23.5635018 227.330059"></polyline>
                    <polyline id="Path-115" stroke="#948BFF" points="46.2207152 174.799607 73.2230161 222.801572 108.300238 190.488369 157.694205 222.801572"></polyline>
                </g>
                <g id="Woman" transform="translate(478.897254, 237.097277) rotate(5.000000) translate(-478.897254, -237.097277) translate(363.397254, 22.597277)">
                    <g id="Body" transform="translate(0.000000, 92.043259)">
                        <g transform="translate(0.527832, 0.197442)">
                            <g id="Right-Hand" transform="translate(0.000000, 48.001965)">
                                <path d="M93.2287048,0.878565021 L86.3748661,30.5964479 L30.5266266,64.9534055 C20.0335357,67.1215922 11.5411851,71.1235572 5.04957457,76.9593003 C-1.91136971,83.216959 -1.76110172,84.9386969 6.03322477,84.2572265 C7.65130865,84.1157548 12.7823126,80.7399305 17.8171776,78.9455154 C26.3663467,75.3021055 29.7196616,75.0089198 27.8771221,78.0659584 C25.1133128,82.6515161 25.1058699,86.3272482 30.0854391,81.6835777 C30.5640265,81.2372736 32.6167445,78.7534001 36.2435933,74.2319573 C78.6894396,61.2874117 102.273641,52.4906546 106.996199,47.8416858 C111.718756,43.192717 116.072734,29.5227889 120.058133,6.83190163 L93.2287048,0.878565021 Z" id="Path-142" fill="#FDBBA4"></path>
                                <path d="M4.65692872,84.2785825 C7.77127138,81.1692318 11.2762825,78.685941 15.1719621,76.8287101" id="Path-157" stroke="#062721" stroke-width="1.10000002"></path>
                                <path d="M1.25403037,84.1392144 C4.47574299,79.9968653 7.99542187,76.9364491 11.813067,74.9579659" id="Path-158" stroke="#062721" stroke-width="1.10000002"></path>
                                <path d="M27.6029166,78.5971799 C28.2902053,77.3946946 28.5893881,76.2855862 28.5004651,75.2698547" id="Path-159" stroke="#062721" stroke-width="1.10000002"></path>
                                <path d="M86.3748661,30.5964479 L92.6302001,34.7113718" id="Path-160" stroke="#062721"></path>
                            </g>
                            <path d="M88.8162762,47.7439473 C97.2829205,20.7143748 107.560109,5.7884956 119.647842,2.96630971 C137.779441,-1.26696912 196.090653,-0.923946877 208.325643,4.74703129 C216.482303,8.5276834 223.396984,21.4283465 229.069686,43.4490206 L202.067594,53.0331708 L204.659125,108.822495 L129.519551,108.822495 L117.081007,54.4112476 L88.8162762,47.7439473 Z" id="Path-37" fill="#2787A7" fill-rule="nonzero"></path>
                            <path d="M115.021865,43.7779446 L121.760995,74.2849776" id="Path-39" stroke="#062721"></path>
                            <path d="M200.68036,34.7201463 L202.775577,65.611541" id="Path-40" stroke="#062721"></path>
                            <g id="Pants" transform="translate(47.960525, 107.684712)">
                                <path d="M36.5276622,29.2795066 C11.0786425,38.9450635 -1.07252504,50.3269009 0.0741596727,63.4250188 C1.79418674,83.0721958 79.7794573,183.314962 82.8026939,188.879213 C84.818185,192.588714 83.0499588,198.169001 77.4980154,205.620075 C83.8768933,204.556062 89.1576977,203.355628 93.3404287,202.018773 C99.6145253,200.013491 111.515904,195.794457 108.858763,185.890872 C84.839515,155.35866 76.245481,136.77113 73.4479424,127.876341 C70.6504038,118.981552 65.5617273,97.0320489 46.0503428,84.0528166 C33.0427532,75.3999951 25.0978486,71.5427624 22.2156292,72.4811186 L54.6625419,58.3868928 L36.5276622,29.2795066 Z" id="Path-165" fill="#E9A38B"></path>
                                <path d="M51.0741656,32.8385133 C25.7860181,38.0990476 10.8999906,46.0804842 6.41608314,56.7828232 C-0.309778011,72.8363316 46.3649318,187.005567 47.1135008,195.55617 C47.6125468,201.256571 46.2873897,205.483545 43.1380294,208.23709 C37.4842622,212.72732 37.2967472,214.74167 42.5754844,214.280142 C47.8542217,213.818614 57.8333124,210.94817 72.5127567,205.668811 C67.7620805,153.762717 64.1780802,123.094549 61.7607556,113.664307 C59.3434311,104.234065 54.7174461,94.5365451 47.8828006,84.5717468 L79.5532995,78.7838579 L51.0741656,32.8385133 Z" id="Path-163" fill="#FDBBA4"></path>
                                <path d="M157.091841,-1.11546004e-10 C168.34725,36.3689993 167.235686,58.1424776 153.75715,65.320435 C140.278614,72.4983924 112.640612,77.8790572 70.8431418,81.4624296 L34.1088326,25.9898862 C66.2256791,14.9433231 82.0424101,6.65928888 81.5590257,1.13778365 L157.091841,-1.11546004e-10 Z" id="Path-162" fill="#005086"></path>
                                <path d="M113.669138,193.589291 C100.766808,198.466748 92.5003689,201.013409 88.8698198,201.229274 C85.2392706,201.445138 84.7592676,199.080792 87.4298107,194.136234 C79.7023249,198.143478 74.1274864,200.774803 70.7052951,202.030211 C65.5696178,203.914199 58.5302582,204.265862 56.6274311,205.436535 C52.8226624,207.777335 51.2338455,210.507872 51.8609804,213.628145 L64.4806344,216.542374 L93.1605495,213.514308 L102.591866,209.208745 L102.895062,212.66495 L115.248001,211.587128 C115.858149,207.45897 116.079351,204.436537 115.911609,202.519832 C115.743867,200.603126 114.996376,197.626279 113.669138,193.589291 Z" id="Path-164" fill="#031511" transform="translate(83.846867, 205.065832) rotate(-18.000000) translate(-83.846867, -205.065832) "></path>
                                <path d="M72.526397,203.314196 C59.6223277,208.193823 51.3548847,210.74191 47.7240679,210.958457 C44.0932511,211.175004 43.6136717,208.810896 46.2853296,203.866135 C29.4821423,211.394205 19.1778213,216.328932 15.3723666,218.670316 C11.5669118,221.0117 9.97747219,223.742371 10.6040477,226.862329 L52.0127088,223.241904 L61.4454388,218.934801 L61.747991,222.390733 L74.1019067,221.31061 C74.7128841,217.182591 74.9346802,214.160305 74.7672951,212.243751 C74.59991,210.327197 73.8529439,207.350678 72.526397,203.314196 Z" id="Path-164" fill="#031511"></path>
                            </g>
                            <g id="Left-Hand" transform="translate(88.840417, 43.120337)">
                                <path d="M31.6507649,95.7264805 C29.1824734,96.8837128 21.3529164,98.3250261 8.16209387,100.05042 C7.25547788,100.129687 6.68085887,99.9105721 6.43823683,99.3930748 C6.1956148,98.8755775 6.37227954,98.4740034 6.96823108,98.1883525 L5.07339613,98.354021 C3.3358217,98.5059399 2.42663995,98.1204888 2.34585086,97.1976676 C2.26506178,96.2748464 2.85229846,95.5612897 4.10756093,95.0569975 L2.19557727,95.4811528 C1.02437239,95.5835531 0.320582936,95.3060384 0.0842089066,94.6486086 C-0.152165123,93.9911788 0.109086491,93.382333 0.86796375,92.822071 L3.24483822,91.6062884 C1.4428439,91.9616118 0.435256206,91.7410727 0.222075132,90.9446711 C0.00889405795,90.1482695 0.671608989,89.4510657 2.21021992,88.8530597 L22.258935,79.9815545 C19.2864468,79.9129651 17.3036508,79.724726 16.310547,79.4168371 C15.3174432,79.1089481 14.5772869,78.4529987 14.0900782,77.4489888 L23.4984607,75.8026644 L33.3795692,74.9387433 L114.385536,43.7019832 L113.424106,9.69506121 L138.648254,0.338220437 C142.121306,32.9248229 141.644502,52.9535682 137.217841,60.4244564 C132.791181,67.8953446 99.6687593,77.9803959 37.850577,90.6796104 C36.1856604,92.8869581 34.1190564,94.5692482 31.6507649,95.7264805 Z" id="Path-152" fill="#FDBBA4"></path>
                                <path d="M3.24483822,91.6062884 L13.0535967,88.8209592" id="Path-153" stroke="#062721" stroke-width="1.20000005"></path>
                                <path d="M3.98281379,95.0790639 L14.2354523,92.2187302" id="Path-154" stroke="#062721" stroke-width="1.20000005"></path>
                                <path d="M6.96823108,98.1883525 L16.058549,95.8724951" id="Path-155" stroke="#062721" stroke-width="1.20000005"></path>
                                <path d="M20.5395132,79.9517185 L24.1916999,80.1007102" id="Path-156" stroke="#062721" stroke-width="1.20000005"></path>
                                <path d="M114.385536,43.7019832 L123.048856,50.1671668" id="Path-161" stroke="#062721"></path>
                            </g>
                            <path d="M92.5668049,48.6234497 L117.081007,54.4112476 L118.650245,61.9878016 C118.030189,65.8375753 117.435275,68.9555298 116.865505,71.3416654 C116.295734,73.7278009 115.309157,77.2329521 113.905773,81.857119 L86.8091134,75.070109 L92.5668049,48.6234497 Z" id="Path-166" fill="#031511"></path>
                            <polyline id="Path-167" stroke="#FFFFFF" points="108.399034 52.3863576 106.31156 62.0066219 110.345459 63.3400679 108.71389 70.0642946 104.07568 68.7439908 100.873009 78.1824968"></polyline>
                        </g>
                    </g>
                    <g id="Head" transform="translate(111.863268, 0.056506)">
                        <g id="Hair" transform="translate(0.726660, 0.208378)" fill="#D5D5D5">
                            <path d="M0.308471292,87.3978539 C1.98815728,75.6027395 5.20982142,67.9185958 9.9734637,64.3454227 C17.1189271,58.9856631 7.89549774,59.456304 4.65845111,49.1160708 C1.42140448,38.7758377 -2.70983517,18.5696314 24.3625502,15.3465711 C51.4349357,12.1235108 59.5287671,36.9897627 68.4290061,47.0416229 C77.3292451,57.0934831 93.5306552,52.1336429 95.9933026,80.0555915 C80.3484256,88.2739312 61.4342003,92.3831011 39.2506269,92.3831011 C17.0670534,92.3831011 4.08633487,90.721352 0.308471292,87.3978539 Z" id="Path-34"></path>
                            <ellipse id="Oval" cx="41.3088404" cy="9.20657884" rx="8.67663416" ry="8.67381997"></ellipse>
                        </g>
                        <g id="Face" transform="translate(5.444658, 35.288079)">
                            <path d="M15.1250892,8.09501161 C9.64901494,6.07142852 5.92812766,3.6222396 3.96242738,0.74744485 C3.7579973,2.70453142 3.29235688,4.37961776 2.56550615,5.77270385 C1.36649452,8.07073612 0.310189865,9.04425439 0.372489634,9.38457822 C4.50488344,31.9585312 12.6140501,50.3009572 26.3587267,45.6138148 L28.7562521,56.9437269 L19.458993,57.5888255 C23.9853704,67.1982721 30.1075607,71.8062657 37.8255637,71.4128064 C45.5435667,71.0193471 53.3485856,66.3192828 61.2406206,57.3126137 L53.8932456,55.7577457 L45.6150147,18.591812 C49.4012093,13.0475884 49.7472094,9.43879011 46.6530149,7.76541706 C44.7922862,6.75911531 43.201436,7.23060856 41.8804645,9.17989683 C29.5196219,10.4802231 20.6011635,10.1185947 15.1250892,8.09501161 Z" id="Path-33" fill="#FDBBA4"></path>
                            <ellipse id="Oval" fill="#062721" cx="6.78874878" cy="18.3782579" rx="1.17931079" ry="1.17828871"></ellipse>
                            <ellipse id="Oval-Copy" fill="#062721" cx="19.3680639" cy="17.5927321" rx="1.17931079" ry="1.17828871"></ellipse>
                            <path d="M15.1815576,12.2961265 C18.8778023,11.4448616 22.2323373,11.7942593 25.2451626,13.3443194" id="Path-8" stroke="#062721" stroke-linecap="round"></path>
                            <path d="M8.75426677,13.3266092 C6.28012508,13.2389949 4.69588712,14.0417936 4.00155287,15.7350051" id="Path-9" stroke="#062721" stroke-linecap="round"></path>
                            <path d="M11.5575928,36.2698167 L20.6129054,34.4692174 C19.3879929,36.6167924 18.1211031,37.8696677 16.812236,38.2278432 C15.5033689,38.5860187 13.7518211,37.9333432 11.5575928,36.2698167 Z" id="Path-43" fill="#FFFFFF"></path>
                            <path d="M26.3587267,45.6138148 C31.945088,44.0125765 35.6264526,40.825004 37.4028203,36.0510974 C36.0576262,46.2763491 33.1754368,53.240559 28.7562521,56.9437269 L26.3587267,45.6138148 Z" id="Path-14" fill="#E9A38B"></path>
                            <path d="M11.9022852,17.9312691 C11.7777541,21.361481 11.3645742,24.0679018 10.6627456,26.0505317 C10.2814003,27.1278127 9.47289399,29.2858063 10.7320496,30.3712382 C11.3504409,30.9043111 13.3695182,30.5830536 16.7892816,29.4074658" id="Path-15" stroke="#062721"></path>
                        </g>
                    </g>
                </g>
                <g id="Doctor" transform="translate(317.394575, 229.179764) scale(-1, 1) translate(-317.394575, -229.179764) translate(174.394575, 12.679764)">
                    <g id="Foot" transform="translate(140.231627, 408.878213) scale(-1, 1) translate(-140.231627, -408.878213) translate(64.731627, 384.878213)">
                        <path d="M71.151243,20.7265226 L71.151243,47.5170526 L87.0786708,47.5170526 L87.0786708,39.4643911 L101.400082,47.5170526 L150.650872,47.5170526 C150.256008,38.5868759 148.303799,34.1217876 144.794243,34.1217876 C139.52991,34.1217876 110.71443,27.5738556 108.267499,25.6239865 C106.636211,24.3240738 105.720602,22.6915858 105.520672,20.7265226 L71.151243,20.7265226 Z" id="Path-146" fill="#031511"></path>
                        <path d="M12.2664836,10.6890006 L2.98427949e-13,37.7036184 L17.6902996,43.6298 L20.6802121,33.6598819 L29.7278489,47.0551469 L74.1973446,47.0551469 C74.2424866,42.9351053 72.2168359,39.8179291 68.1203927,37.7036184 C61.9757278,34.5321523 44.1396732,32.4843993 44.1396732,28.1975254 C44.1396732,25.3396096 44.3359149,22.9879742 44.7283984,21.1426192 L12.2664836,10.6890006 Z" id="Path-147" fill="#031511"></path>
                        <polygon id="Path-148" fill="#FFA07F" points="13.1068963 11.1050972 17.6454579 -8.34887715e-14 48.4153612 10.6890006 43.9710692 21.1426192"></polygon>
                        <polygon id="Path-149" fill="#FFA07F" points="71.151243 16.1074657 71.151243 20.7265226 105.520672 20.7265226 105.520672 16.1074657"></polygon>
                    </g>
                    <g id="Pants" transform="translate(102.394161, 191.280496)">
                        <polygon id="Path-82" fill="#031511" points="75.6532765 7.95989322e-13 66.5578286 93.8868222 126.457195 93.8868222 92.4635175 9.94477486e-13"></polygon>
                        <polygon id="Path-145" fill="#1F6F8A" fill-rule="nonzero" points="58.243335 98.395352 101.070983 191.713303 53.8042365 208.861883 42.1862238 178.042102 42.1862238 98.395352"></polygon>
                        <path d="M160.920389,30.7325677 C168.438159,74.4310032 159.660441,97.6233749 134.587234,100.309683 C109.514027,102.995991 80.6747967,103.303928 48.0695429,101.233494 L47.1451286,209.705183 L-4.54747351e-13,209.705183 L-2.87059265e-12,71.6412876 C-3.18733279e-12,53.4816064 14.404931,38.5956839 32.5548211,37.9994366 L85.3838989,36.2639331 L160.920389,30.7325677 Z" id="Path-70" fill="#2787A7" fill-rule="nonzero"></path>
                    </g>
                    <g id="Head" transform="translate(169.790327, -0.000000)">
                        <path d="M6.5038095,41.7131489 C1.60827125,34.0614709 -0.523545056,26.6138076 0.108360599,19.3701591 C1.05621908,8.50468637 22.7604191,-7.99231018 42.318743,4.44145137 C55.3576256,12.7306257 58.9588947,29.4395615 53.1225505,54.5682585 L6.5038095,41.7131489 Z" id="Hair" fill="#062721"></path>
                        <g id="Face" transform="translate(2.775291, 20.899536)">
                            <g id="Path-96">
                                <mask id="mask-7" fill="white">
                                    <use xlink:href="#path-6"></use>
                                </mask>
                                <use id="Mask" fill="#FFA07F" xlink:href="#path-6"></use>
                                <path d="M29.1414302,51.1129134 C34.9028322,49.1489162 38.6354426,45.7505517 40.3392616,40.91782 L33.6277414,69.6339789 C33.2415972,65.7794419 32.6748932,62.8105636 31.9276295,60.7273439 C31.1803658,58.6441242 30.2516327,55.439314 29.1414302,51.1129134 Z" fill="#DF8D70" mask="url(#mask-7)"></path>
                            </g>
                            <path d="M16.8399582,40.91782 L26.8225304,37.0293408 C26.5546652,40.2451134 25.3856848,42.1803389 23.3155892,42.8350173 C21.2454936,43.4896957 19.08695,42.8506299 16.8399582,40.91782 Z" id="Path-98" fill="#FFFFFF"></path>
                            <path d="M12.525143,21.4366346 C12.8809327,23.039872 13.1183923,24.3268785 13.237522,25.2976542 C13.9528355,31.1266742 13.6883997,34.5009554 14.8181145,34.9150537 C16.2300464,35.4325989 17.9886308,34.765758 20.0938677,32.914531" id="Path-99" stroke="#062721" stroke-width="1.01999998" stroke-linecap="round"></path>
                            <ellipse id="Oval" fill="#062721" cx="8.51211304" cy="24.3131076" rx="1.38662143" ry="1.38571707"></ellipse>
                            <ellipse id="Oval-Copy-6" fill="#062721" cx="19.6050845" cy="20.6178621" rx="1.38662143" ry="1.38571707"></ellipse>
                            <path d="M14.9872164,16.8498617 C16.7583095,14.8197383 19.1736351,14.1430305 22.2331932,14.8197383" id="Path-100" stroke="#062721" stroke-width="1.01999998" stroke-linecap="round"></path>
                            <path d="M8.51211304,19.232145 C6.82818549,19.7079675 5.63983342,20.4427974 4.94705682,21.4366346" id="Path-101" stroke="#062721" stroke-width="1.01999998" stroke-linecap="round"></path>
                            <ellipse id="Oval" stroke="#FFFFFF" stroke-width="1.01999998" stroke-linecap="round" cx="6.66328446" cy="26.1607303" rx="5.08427857" ry="5.08096258"></ellipse>
                            <ellipse id="Oval-Copy-7" stroke="#FFFFFF" stroke-width="1.01999998" stroke-linecap="round" cx="19.6050845" cy="20.6178621" rx="5.08427857" ry="5.08096258"></ellipse>
                            <path d="M11.1922588,23.438238 L14.5208059,22.0035791" id="Path-102" stroke="#FFFFFF" stroke-width="1.01999998" stroke-linecap="round"></path>
                            <path d="M24.2241091,18.4940521 L39.6800546,9.74348742" id="Path-103" stroke="#FFFFFF" stroke-width="1.01999998" stroke-linecap="round"></path>
                        </g>
                    </g>
                    <g id="Body" transform="translate(0.000000, 67.758598)">
                        <g id="Clothes" transform="translate(95.940888, 0.000000)">
                            <path d="M103.44726,9.58493543 C91.1313692,14.9440241 84.0955044,18.514461 82.339666,20.2962464 C80.5838276,22.0780317 72.1017974,48.8101946 56.8935755,100.492735 L0.848278167,102.630487 L0.848278167,127.234775 L82.339666,128.401153 L103.44726,9.58493543 Z" id="Path-83" fill="#E2E2E2" fill-rule="nonzero"></path>
                            <path d="M106.857462,8.19555573 C110.172695,22.4966033 118.564489,21.073023 132.032844,3.92481499 L136.432526,7.14942831 L96.7185978,116.9696 L79.5137411,114.971 L106.857462,8.19555573 Z" id="Path-85" fill="#2F95FF"></path>
                            <path d="M76.62473,113.519194 L95.6948267,113.519194 L95.6948267,135.304379 C135.77074,136.158257 159.869842,135.704873 167.992132,133.944226 C180.175566,131.303257 182.816914,91.0828449 187.440954,62.5499688 C192.064995,34.0170927 187.767254,24.4024801 171.991156,16.8379308 C161.473758,11.794898 148.542109,6.18225438 133.19621,-7.60162262e-14 L94.2777936,106.495673 L95.6948267,75.2007471 L101.746708,39.9304622 L106.857462,8.19555573 C99.3408075,10.8617759 93.9918677,14.2634969 90.8106424,18.4007186 C86.0388044,24.6065513 76.62473,37.3212598 76.62473,71.7652275 C76.62473,94.7278726 76.62473,108.645861 76.62473,113.519194 Z" id="Path-68" fill="#FFFFFF" fill-rule="nonzero"></path>
                            <polyline id="Path-97" stroke="#062721" stroke-width="1.01999998" points="106.857462 8.19555573 91.8371712 27.4621664 101.764191 28.5644466 91.8371712 35.3000943 94.2777936 83.9870946"></polyline>
                            <path d="M157.254198,39.9304622 L147.216557,110.471032" id="Path-80" stroke="#062721" stroke-width="1.01999998"></path>
                            <polygon id="Path-17" fill="#FFFFFF" fill-rule="nonzero" points="167.307565 132.579769 175.482599 161.939539 105.259715 161.939539 92.9342354 144.969144 83.2880145 161.939539 67.3805872 161.939539 79.3979729 117.74533 168.834268 117.74533"></polygon>
                            <polyline id="Path-66" stroke="#062721" stroke-width="1.01999998" points="133.894701 0.869442015 141.964921 33.9109349 130.693125 33.9109349 136.329023 40.9025407 104.35511 77.8983995 94.2777936 106.495673 92.9036357 145.385303"></polyline>
                            <polygon id="Path-67" fill="#2F95FF" points="95.7189755 112.543973 118.265962 111.737405 118.265962 135.304379 95.7189755 135.304379"></polygon>
                            <path d="M166.54638,114.755883 C164.59062,113.275031 159.712424,111.846784 151.911791,110.471142 L95.6948267,112.217213 L95.6948267,135.304379 L166.54638,134.607634 C172.787229,133.614801 177.092178,126.479852 179.461226,113.202786" id="Path-79" stroke="#062721" stroke-width="1.01999998"></path>
                            <polyline id="Path-87" fill="#ECECEC" fill-rule="nonzero" points="65.5421644 107.177118 56.8935755 100.492735 80.3532484 23.5254417"></polyline>
                            <polyline id="Path-132" stroke="#062721" stroke-width="1.01999998" points="86.75237 46.0913252 80.4352489 111.516641 80.3532484 112.543973 67.3805872 160.86715"></polyline>
                            <polyline id="Path-141" stroke="#062721" stroke-width="1.01999998" points="56.8935755 100.492735 0.848278167 102.630487 0.848278167 127.234775"></polyline>
                        </g>
                        <path d="M165.007951,122.866913 C171.3897,122.866913 179.27559,118.601254 176.563129,111.319271 C173.850669,104.037288 165.85251,94.5073763 159.470761,94.5073763 C153.089012,94.5073763 153.452772,104.941684 153.452772,111.319271 C153.452772,117.696858 158.626202,122.866913 165.007951,122.866913 Z" id="Oval" fill="#031511"></path>
                        <g id="Left-Hand" transform="translate(148.212392, 102.093993)">
                            <path d="M43.0009235,11.4759115 L30.2214517,2.66107537 L21.8454403,0.49117552 C19.9592672,-0.163725173 18.9379279,-0.163725173 18.7814222,0.49117552 C18.5466638,1.47352656 19.5425816,2.72556904 20.5293922,3.70755282 C21.187266,4.36220868 23.6883445,5.79133772 28.0326279,7.99493996 L17.2197465,5.9581881 L9.48591684,3.2824414 C6.69925624,2.15083694 5.24415578,1.74047326 5.12061546,2.05135036 C4.80490529,2.84580404 5.30973312,3.72519946 6.63509896,4.68953661 L14.5885809,9.64341142 L10.9993394,8.67904663 C5.48238473,4.71006157 2.52270785,3.05289697 2.12030875,3.70755282 C1.5167101,4.68953661 2.59784084,6.0050435 3.11926347,6.73519221 C3.87347299,7.79131269 6.58370397,10.0965948 11.2499564,13.6510387 L7.7517508,11.7980048 C3.45792168,8.14786355 1.00286902,6.65408995 0.386592825,7.31668402 C-0.229683365,7.97927809 1.31020459,10.1697625 5.00625669,13.8881372 L10.5405952,18.3060204 L10.7951169,18.5862686 C5.71939578,15.9650725 3.07934922,14.9867619 2.8749772,15.6513369 C2.67060519,16.3159119 5.2827825,18.6858444 10.7115091,22.7611345 L21.4652914,28.1971616 C29.6344447,29.6840084 36.8129888,30.1141864 43.0009235,29.4876956 L43.0009235,11.4759115 Z" id="Path-69" fill="#FFA07F"></path>
                            <path d="M9.49262143,12.0044717 L15.3575851,15.6513369" id="Path-88" stroke="#062721" stroke-width="1.01999998"></path>
                            <path d="M7.98600481,15.90668 C9.6347749,17.2594757 10.942076,18.2367512 11.9079081,18.8385066 C12.8737403,19.440262 13.748015,19.9288284 14.5307324,20.3042058" id="Path-89" stroke="#062721" stroke-width="1.01999998"></path>
                            <path d="M12.1276685,7.90582955 L18.6158825,11.2565475" id="Path-90" stroke="#062721" stroke-width="1.01999998"></path>
                        </g>
                        <g id="Path-143-+-Path-144-Mask" transform="translate(71.789166, 114.637097) scale(-1, 1) translate(-71.789166, -114.637097) translate(46.789166, 105.637097)">
                            <mask id="mask-9" fill="white">
                                <use xlink:href="#path-8"></use>
                            </mask>
                            <use id="Mask" fill="#FFA07F" xlink:href="#path-8"></use>
                            <path d="M45.6670444,11.3560962 C39.7816866,8.3793811 34.3572749,6.62117684 29.3938094,6.08148348" id="Path-143" stroke="#062721" stroke-width="1.01999998" mask="url(#mask-9)"></path>
                            <path d="M48.0291788,8.98443004 C41.9194499,5.58724449 36.6135517,3.71845046 32.1114844,3.37804795" id="Path-144" stroke="#062721" stroke-width="1.01999998" mask="url(#mask-9)"></path>
                        </g>
                        <path d="M159.470761,97.9511275 C155.604088,91.3252121 149.640819,89.9595943 141.580952,93.8542741 C129.491152,99.6962938 102.752504,136.79837 60.8922817,132.599761 C32.9854667,129.800689 12.7898333,119.6321 0.305381456,102.093993" id="Path-168" stroke="#031511" stroke-width="2"></path>
                    </g>
                    <g id="Group-7" transform="translate(60.000043, 83.136628)">
                        <path d="M147.305921,0 C150.497031,48.8897078 150.130176,80.5150216 146.205357,94.8759412 M131.586905,121.175735 C122.79219,128.924171 110.996006,131.189897 96.1983544,127.972913 C27.4315182,113.023123 26.0306837,98.2251182 7.39531429,102.622644" id="Shape" stroke="#062721" stroke-width="2.03999996"></path>
                        <path d="M2.8109837,104.615647 C2.60221398,100.920401 4.44573326,99.9965897 8.34154155,101.844212 L2.8109837,104.615647 Z" id="Path-150" fill="#062721" transform="translate(5.568299, 102.768024) scale(-1, 1) translate(-5.568299, -102.768024) "></path>
                        <path d="M7.66242602,100.971129 L2.09117062,103.822968 C1.44343481,104.154533 1.18712843,104.948414 1.51869428,105.59615 C1.52309889,105.604755 1.52759806,105.613311 1.53219097,105.621816 L1.53219097,105.621816 C1.88948956,106.283502 2.70594418,106.544371 3.38071586,106.212448 L9.1065664,103.395875 C9.75759756,103.07563 10.0257525,102.288255 9.70550722,101.637224 C9.69015036,101.606005 9.67355935,101.575408 9.65577344,101.545506 L9.65577344,101.545506 C9.24691978,100.858133 8.37435167,100.606705 7.66242602,100.971129 Z" id="Path-151" fill="#062721" transform="translate(5.637587, 103.564969) scale(-1, 1) translate(-5.637587, -103.564969) "></path>
                    </g>
                    <path d="M217.478656,35.0183058 C221.947942,60.2803847 218.557044,76.3198253 207.305964,83.1366277 C199.971047,83.1366277 193.761969,77.7057088 188.678727,66.8438709" id="Path-138" stroke="#D8D8D8" stroke-width="1.01999998"></path>
                    <path d="M218.809411,63.0322928 C217.435684,72.6210553 213.601202,79.3225345 207.305964,83.1366277 C199.448944,81.5669891 193.911407,77.7492509 190.693353,71.6834132" id="Path-138-Copy" stroke="#062721" stroke-width="3.05999994"></path>
                    <ellipse id="Oval" stroke="#D8D8D8" stroke-width="1.01999998" fill="#D8D8D8" cx="217.699565" cy="35.566738" rx="1.38662143" ry="1.38571707"></ellipse>
                </g>
            </g>
        </g>
    </g>
</svg>