<svg xmlns="http://www.w3.org/2000/svg" xmlns:xlink="http://www.w3.org/1999/xlink" width="762" height="606" viewBox="0 0 762 606">
    <defs>
        <path id="ued1mu9ric" d="M368.626 256.257c36.897 2.102 57.688-4.617 62.374-20.158 7.029-23.311-14.25-118.388-34.48-170.43C383.036 30.975 350.756 9.384 299.684.9l-62.047 2.77c-51.386 11.377-81.962 25.361-91.727 41.952-9.766 16.59-28.578 45.101-56.435 85.531L51.877 25.798.107 45.621S42.148 228.564 76.373 233.84c22.817 3.518 52.297-15.743 88.442-57.78v162.86h203.811v-82.662z"/>
        <path id="w8aiuoiyre" d="M.036 2.76c3.44 15.562 4.587 29.292 3.44 41.19 9.278 22.697 19.893 34.045 31.847 34.045s22.02-12.272 30.2-36.815c-1.568-10.11-1.117-20.392 1.351-30.843C69.344-.115 47.064-2.641.036 2.759z"/>
        <path id="i0c98d8c2g" d="M368.626 256.257c36.897 2.102 57.688-4.617 62.374-20.158 7.029-23.311-14.25-118.388-34.48-170.43C383.036 30.975 350.756 9.384 299.684.9l-62.047 2.77c-51.386 11.377-81.962 25.361-91.727 41.952-9.766 16.59-28.578 45.101-56.435 85.531L51.877 25.798.107 45.621S42.148 228.564 76.373 233.84c22.817 3.518 52.297-15.743 88.442-57.78v102.86h203.811v-22.662z"/>
        <path id="svcnp0wpmi" d="M.036 2.76c3.44 15.562 4.587 29.292 3.44 41.19 9.278 22.697 19.893 34.045 31.847 34.045s22.02-12.272 30.2-36.815c-1.568-10.11-1.117-20.392 1.351-30.843C69.344-.115 47.064-2.641.036 2.759z"/>
        <rect id="ibot92928a" width="247" height="528" x="0" y="0" rx="38.7"/>
    </defs>
    <g fill="none" fill-rule="evenodd">
        <g>
            <g>
                <path fill="#09A4D8" fill-rule="nonzero" d="M654.157 459.732C549.728 552.348 451.16 598.676 358.45 598.714c-92.71.039-182.308-46.21-268.796-138.747C-31.824 252.397-29.853 110.781 95.566 35.12c188.128-113.495 340.72 85.088 537.841 77.356 106.035-4.16 190.753 113.836 67.876 287.272-14.297 20.18-30.006 40.175-47.126 59.985z" opacity=".1" transform="translate(-138 -1103) translate(138 1103.786)"/>
                <g fill="#FFF" opacity=".1" transform="translate(-138 -1103) translate(138 1103.786) translate(206 52.214)">
                    <rect width="3" height="16" rx="1.5"/>
                </g>
                <g fill="#FFF" opacity=".1" transform="translate(-138 -1103) translate(138 1103.786) translate(369 258.214)">
                    <rect width="3" height="16" rx="1.5"/>
                </g>
                <g transform="translate(-138 -1103) translate(138 1103.786) translate(325 46.214)">
                    <rect width="275" height="559" fill="#1C154A" rx="43"/>
                    <g transform="translate(14 15)">
                        <mask id="ip64f8ikjb" fill="#fff">
                            <use xlink:href="#ibot92928a"/>
                        </mask>
                        <use fill="#E6F5FB" xlink:href="#ibot92928a"/>
                        <rect width="202" height="298" x="25" y="51" fill="#FFF" mask="url(#ip64f8ikjb)" opacity=".5" rx="20"/>
                        <g mask="url(#ip64f8ikjb)">
                            <g transform="translate(-164 99)">
                                <path fill="#FFA07F" d="M74.4 177.808l-12.198-32.802c2.782-9.782 3.478-18.717 2.087-26.805-1.392-8.088.805-15.216 6.59-21.385-6.717-2.374-11.406-.7-14.068 5.02-2.662 5.719-4.962 10.314-6.899 13.784-3.946-7.067-6.504-12.176-7.674-15.326-7.047-18.968-9.58-28.715-11.455-27.851-2.341 1.078-2.341 9.203 0 24.373-2.055-3.552-3.486-6.169-4.293-7.85-7.57-15.762-10.947-20.325-12.89-19.261-3.383 1.851 7.463 30.589 5.772 30.589-1.69 0-11.854-22.714-14.686-21.09-1.887 1.084.547 10.72 7.302 28.91C6.173 97.668 2.359 92.839.548 93.632c-2.718 1.188 5.458 18.863 7.558 24.813 2.1 5.95 4.475 25.06 20.468 40.114l8 31.493L74.4 177.808z"/>
                                <path fill="#062721" d="M244.892 62.103c-3.848-20.647-3.848-32.445 0-35.394 11.23-21.091 28.153-29.691 50.77-25.8 33.926 5.838 48.349 22.728 41.9 60.064-4.298 24.89-32.52 30.877-84.663 17.958l-8.007-16.828z"/>
                                <g transform="translate(23.893 131.552)">
                                    <mask id="55y3aqakud" fill="#fff">
                                        <use xlink:href="#ued1mu9ric"/>
                                    </mask>
                                    <use fill="#FFF" xlink:href="#ued1mu9ric"/>
                                    <path fill="#FFF" d="M232.929 2.77L262.653 147.492 294.763 0z" mask="url(#55y3aqakud)"/>
                                    <path stroke="#062721" stroke-width="1.44" d="M232.929 2.77L201.992 63.524 231.552 71.634 211.796 87.511 262.653 172.569" mask="url(#55y3aqakud)"/>
                                    <path stroke="#062721" stroke-width="1.44" d="M296.591 0.37L265.654 61.124 295.214 69.234 275.458 85.111 326.253 172.569" mask="url(#55y3aqakud)" transform="matrix(-1 0 0 1 591.907 0)"/>
                                    <path stroke="#FFF" stroke-width="4.8" d="M319.557 48.887c-1.07-17.991-4.603-33.987-10.601-47.988M225.435 2.77c-18.657 5.448-27.985 26.09-27.985 61.925v66.368" mask="url(#55y3aqakud)"/>
                                    <circle cx="196.907" cy="130.499" r="12" fill="#FFF" mask="url(#55y3aqakud)"/>
                                </g>
                                <g>
                                    <path fill="#F9F8F8" d="M0 0H82.596V118.683H0z" transform="translate(253.2 265.65)"/>
                                    <path stroke="#062721" stroke-width="1.597" d="M13.2 15.151h57.452M13.2 30.751h42.435M13.2 45.151h57.452M13.2 60.751h42.435" transform="translate(253.2 265.65)"/>
                                </g>
                                <g>
                                    <path fill="#FFA07F" d="M67.2 19.864L44.824 4.606 30.158.85c-3.303-1.133-5.091-1.133-5.365 0-.412 1.7 2.378 6.03 3.608 7.267.82.824 5.016 2.732 12.59 5.722l-18.933-3.526L5.156 2.055C2.391 1.035.732 1.213.18 2.588c-.553 1.375.17 2.94 2.17 4.692l15.101 9.412c-3.922-.708-6.072-.984-6.45-.827-.565.235-1.879.858-2.157 3.076-.185 1.479.322 3.076 1.52 4.791l.802.674c-1.228 1.076-1.922 2.321-2.082 3.735-.16 1.415.267 2.596 1.28 3.545l.445.485c-.972 1.146-1.457 2.332-1.457 3.56 0 1.229.337 2.22 1.011 2.971l18.74 10.863c14.563 2.068 27.262 2.56 38.097 1.476V19.864z" transform="translate(268.8 317.25)"/>
                                    <path stroke="#062721" stroke-width="1.597" d="M10.8 25.2l7.2 2.4M10.8 32.4l8.4 3.6M16.8 16.8l7.2 2.4" transform="translate(268.8 317.25)"/>
                                </g>
                                <g transform="translate(258.146 91.572)">
                                    <mask id="scsyjmkvff" fill="#fff">
                                        <use xlink:href="#w8aiuoiyre"/>
                                    </mask>
                                    <use fill="#FFA07F" xlink:href="#w8aiuoiyre"/>
                                    <path fill="#DF8D70" d="M65.31 16.034C56.091 37.244 40.627 47.85 18.915 47.85c-9.684 1.372-8.239 10.922 4.335 28.652L-4.6 47.139.036 7.965l65.273 8.07z" mask="url(#scsyjmkvff)"/>
                                </g>
                                <path fill="#FFA07F" d="M334.897 86.231c2.143-1.174 4.68-5.691 5.791-14.788 1.112-9.097-2.664-10.774-4.94-10.016-1.517.505-3.967 4.39-7.35 11.655l.326-15.902c-5.335-5.666-8.132-12.625-8.393-20.878-16.094 5.364-33.666 2.82-52.717-7.632-2.64 4.608-4.847 7.885-7.09 10.639-1.674 2.053-3.979 4.248-6.914 6.585l.758 27.234-7.065-11.7c-9.327 0-2.46 18.327 0 22.893 1.64 3.044 4.398 3.681 8.272 1.91 0 0 9.234 42.56 34.959 44.461 25.725 1.902 38.19-32.33 38.19-44.461 2.686.783 4.744.783 6.173 0z"/>
                                <path stroke="#062721" stroke-width="1.44" d="M23.93 129.202c4.406-5.96 13.266-10.66 26.58-14.1-11.037 8.598-14.076 17.999-9.117 28.2M29.296 83.927c1.313 10.815 2.4 17.526 3.26 20.133M17.321 90.283l4.035 14.93M8.576 98.847l4.17 11.299M10.66 112.58c2.086 0 5.54-11.03 26.54-8.084M188.632 266.652v133.535M24.093 177.474L75.864 157.651 113.461 263.005 113.461 289.059"/>
                                <path fill="#FFF" d="M293.194 108.722c-4.82 0-9.008-2.234-12.565-6.702h25.13c-3.557 4.468-7.745 6.702-12.565 6.702z"/>
                                <path stroke="#062721" stroke-width="1.44" d="M288.501 65.867l-1.87 24.907c3.647 2.973 8.338 2.973 14.073 0"/>
                                <circle cx="275.853" cy="69.904" r="2.253" fill="#062721"/>
                                <g transform="translate(326.4 180.25)">
                                    <path stroke="#FFF" stroke-width="3.6" d="M51.924 99.556C16.13 101.298-1.158 73.974.06 17.586.822 11.83 2.88 7.349 6.233 4.144c5.03-4.809 19.073-7.05 26.229 4.092 12.897 20.083 11.597 90.339-26.23 98.566"/>
                                    <circle cx="54.449" cy="99.357" r="4.2" fill="#062721"/>
                                    <circle cx="6.449" cy="106.557" r="4.2" fill="#062721"/>
                                </g>
                                <circle cx="302.253" cy="69.904" r="2.253" fill="#062721"/>
                                <ellipse cx="274.659" cy="69.913" stroke="#FFF" stroke-linecap="round" stroke-width="1.597" rx="9.459" ry="9.463"/>
                                <ellipse cx="303.459" cy="69.913" stroke="#FFF" stroke-linecap="round" stroke-width="1.597" rx="9.459" ry="9.463"/>
                                <path stroke="#FFF" stroke-width="1.2" d="M284.118 67.65H294M312.918 67.65l20.214-5.557M265.2 67.65l-15.872-7.2"/>
                                <path stroke="#062721" stroke-width="1.2" d="M266.858 59.136c4.745-2.957 9.597-3.133 14.557-.528M296.858 59.136c4.745-2.957 9.597-3.133 14.557-.528"/>
                                <path stroke="#062721" stroke-width="1.44" d="M437.386 351.45c-2.794-8.821-8.197-13.821-16.208-15L336 334.05v41.269c37.048 11.94 69.856 14.92 98.425 8.939M386.693 239.95l4.066 96.5"/>
                            </g>
                        </g>
                    </g>
                </g>
                <g>
                    <g transform="translate(-138 -1103) translate(138 1103.786) translate(175 160.214)">
                        <path fill="#FFA07F" d="M74.4 177.808l-12.198-32.802c2.782-9.782 3.478-18.717 2.087-26.805-1.392-8.088.805-15.216 6.59-21.385-6.717-2.374-11.406-.7-14.068 5.02-2.662 5.719-4.962 10.314-6.899 13.784-3.946-7.067-6.504-12.176-7.674-15.326-7.047-18.968-9.58-28.715-11.455-27.851-2.341 1.078-2.341 9.203 0 24.373-2.055-3.552-3.486-6.169-4.293-7.85-7.57-15.762-10.947-20.325-12.89-19.261-3.383 1.851 7.463 30.589 5.772 30.589-1.69 0-11.854-22.714-14.686-21.09-1.887 1.084.547 10.72 7.302 28.91C6.173 97.668 2.359 92.839.548 93.632c-2.718 1.188 5.458 18.863 7.558 24.813 2.1 5.95 4.475 25.06 20.468 40.114l8 31.493L74.4 177.808z"/>
                        <path fill="#062721" d="M244.892 62.103c-3.848-20.647-3.848-32.445 0-35.394 11.23-21.091 28.153-29.691 50.77-25.8 33.926 5.838 48.349 22.728 41.9 60.064-4.298 24.89-32.52 30.877-84.663 17.958l-8.007-16.828z"/>
                        <g transform="translate(23.893 131.552)">
                            <mask id="grv2xlqsrh" fill="#fff">
                                <use xlink:href="#i0c98d8c2g"/>
                            </mask>
                            <use fill="#FFF" fill-rule="nonzero" xlink:href="#i0c98d8c2g"/>
                            <path fill="#2F95FF" stroke="#062721" stroke-width="1.02" d="M232.929 2.77L262.653 147.492 294.763 0z" mask="url(#grv2xlqsrh)"/>
                            <path stroke="#062721" stroke-width="1.44" d="M232.929 2.77L201.992 63.524 231.552 71.634 211.796 87.511 262.653 172.569" mask="url(#grv2xlqsrh)"/>
                            <path stroke="#062721" stroke-width="1.44" d="M296.591 0.37L265.654 61.124 295.214 69.234 275.458 85.111 326.253 172.569" mask="url(#grv2xlqsrh)" transform="matrix(-1 0 0 1 591.907 0)"/>
                            <path stroke="#DDD" stroke-width="3.6" d="M319.557 48.887c-1.07-17.991-4.603-33.987-10.601-47.988M225.435 2.77c-18.657 5.448-27.985 26.09-27.985 61.925v66.368" mask="url(#grv2xlqsrh)"/>
                            <circle cx="196.907" cy="130.499" r="12" fill="#66B2CC" mask="url(#grv2xlqsrh)"/>
                        </g>
                        <g>
                            <path fill="#585F9D" d="M0 0H82.596V118.683H0z" transform="translate(253.2 265.65)"/>
                            <path stroke="#FFF" stroke-width="1.597" d="M13.2 15.151h57.452M13.2 30.751h42.435M13.2 45.151h57.452M13.2 60.751h42.435" transform="translate(253.2 265.65)"/>
                        </g>
                        <g>
                            <path fill="#FFA07F" d="M67.2 19.864L44.824 4.606 30.158.85c-3.303-1.133-5.091-1.133-5.365 0-.412 1.7 2.378 6.03 3.608 7.267.82.824 5.016 2.732 12.59 5.722l-18.933-3.526L5.156 2.055C2.391 1.035.732 1.213.18 2.588c-.553 1.375.17 2.94 2.17 4.692l15.101 9.412c-3.922-.708-6.072-.984-6.45-.827-.565.235-1.879.858-2.157 3.076-.185 1.479.322 3.076 1.52 4.791l.802.674c-1.228 1.076-1.922 2.321-2.082 3.735-.16 1.415.267 2.596 1.28 3.545l.445.485c-.972 1.146-1.457 2.332-1.457 3.56 0 1.229.337 2.22 1.011 2.971l18.74 10.863c14.563 2.068 27.262 2.56 38.097 1.476V19.864z" transform="translate(268.8 317.25)"/>
                            <path stroke="#062721" stroke-width="1.597" d="M10.8 25.2l7.2 2.4M10.8 32.4l8.4 3.6M16.8 16.8l7.2 2.4" transform="translate(268.8 317.25)"/>
                        </g>
                        <g transform="translate(258.146 91.572)">
                            <mask id="zy24tfjuhj" fill="#fff">
                                <use xlink:href="#svcnp0wpmi"/>
                            </mask>
                            <use fill="#FFA07F" xlink:href="#svcnp0wpmi"/>
                            <path fill="#DF8D70" d="M65.31 16.034C56.091 37.244 40.627 47.85 18.915 47.85c-9.684 1.372-8.239 10.922 4.335 28.652L-4.6 47.139.036 7.965l65.273 8.07z" mask="url(#zy24tfjuhj)"/>
                        </g>
                        <path fill="#FFA07F" d="M334.897 86.231c2.143-1.174 4.68-5.691 5.791-14.788 1.112-9.097-2.664-10.774-4.94-10.016-1.517.505-3.967 4.39-7.35 11.655l.326-15.902c-5.335-5.666-8.132-12.625-8.393-20.878-16.094 5.364-33.666 2.82-52.717-7.632-2.64 4.608-4.847 7.885-7.09 10.639-1.674 2.053-3.979 4.248-6.914 6.585l.758 27.234-7.065-11.7c-9.327 0-2.46 18.327 0 22.893 1.64 3.044 4.398 3.681 8.272 1.91 0 0 9.234 42.56 34.959 44.461 25.725 1.902 38.19-32.33 38.19-44.461 2.686.783 4.744.783 6.173 0z"/>
                        <path stroke="#062721" stroke-width="1.44" d="M23.93 129.202c4.406-5.96 13.266-10.66 26.58-14.1-11.037 8.598-14.076 17.999-9.117 28.2M29.296 83.927c1.313 10.815 2.4 17.526 3.26 20.133M17.321 90.283l4.035 14.93M8.576 98.847l4.17 11.299M10.66 112.58c2.086 0 5.54-11.03 26.54-8.084M188.632 266.652v133.535M24.093 177.474L75.864 157.651 113.461 263.005 113.461 289.059"/>
                        <path fill="#FFF" d="M293.194 108.722c-4.82 0-9.008-2.234-12.565-6.702h25.13c-3.557 4.468-7.745 6.702-12.565 6.702z"/>
                        <path stroke="#062721" stroke-width="1.44" d="M288.501 65.867l-1.87 24.907c3.647 2.973 8.338 2.973 14.073 0"/>
                        <circle cx="275.853" cy="69.904" r="2.253" fill="#062721"/>
                        <g transform="translate(326.4 180.25)">
                            <path stroke="#DDD" stroke-width="3.6" d="M51.924 99.556C16.13 101.298-1.158 73.974.06 17.586.822 11.83 2.88 7.349 6.233 4.144c5.03-4.809 19.073-7.05 26.229 4.092 12.897 20.083 11.597 90.339-26.23 98.566"/>
                            <circle cx="54.449" cy="99.357" r="4.2" fill="#66B2CC"/>
                            <circle cx="6.449" cy="106.557" r="4.2" fill="#66B2CC"/>
                        </g>
                        <circle cx="302.253" cy="69.904" r="2.253" fill="#062721"/>
                        <ellipse cx="274.659" cy="69.913" stroke="#FFF" stroke-linecap="round" stroke-width="1.597" rx="9.459" ry="9.463"/>
                        <ellipse cx="303.459" cy="69.913" stroke="#FFF" stroke-linecap="round" stroke-width="1.597" rx="9.459" ry="9.463"/>
                        <path stroke="#FFF" stroke-width="1.2" d="M284.118 67.65H294M312.918 67.65l20.214-5.557M265.2 67.65l-15.872-7.2"/>
                        <path stroke="#062721" stroke-width="1.2" d="M266.858 59.136c4.745-2.957 9.597-3.133 14.557-.528M296.858 59.136c4.745-2.957 9.597-3.133 14.557-.528"/>
                        <path stroke="#062721" stroke-width="1.44" d="M437.386 351.45c-2.794-8.821-8.197-13.821-16.208-15L336 334.05v41.269c37.048 11.94 69.856 14.92 98.425 8.939M386.693 239.95l4.066 96.5"/>
                    </g>
                </g>
                <path fill="#1C154A" d="M398 55.214h130v11c0 6.628-5.373 12-12 12H410c-6.627 0-12-5.372-12-12v-11z" transform="translate(-138 -1103) translate(138 1103.786)"/>
                <g transform="translate(-138 -1103) translate(138 1103.786) translate(265.372 152.661)">
                    <path fill="#66B2CC" d="M125.915 53.112V12c0-6.627-5.372-12-12-12H12C5.373 0 0 5.373 0 12v31.71c0 6.628 5.373 12 12 12h91.706l22.21 20.847V53.112z"/>
                    <circle cx="39.628" cy="28.553" r="4" fill="#FFF"/>
                    <circle cx="59.628" cy="28.553" r="4" fill="#FFF"/>
                    <circle cx="79.628" cy="28.553" r="4" fill="#FFF"/>
                </g>
            </g>
        </g>
    </g>
</svg>
