<?xml version="1.0" encoding="UTF-8"?>
<svg width="80px" height="76px" viewBox="0 0 80 76" version="1.1" xmlns="http://www.w3.org/2000/svg" xmlns:xlink="http://www.w3.org/1999/xlink">
    <!-- Generator: sketchtool 53.2 (72643) - https://sketchapp.com -->
    <title>0A860D0C-D747-4CBB-BCF0-B9E13FFBEB15</title>
    <desc>Created with sketchtool.</desc>
    <g id="Page-1" stroke="none" stroke-width="1" fill="none" fill-rule="evenodd" stroke-linecap="round" stroke-linejoin="round">
        <g id="Services" transform="translate(-685.000000, -609.000000)" stroke="#2787A7" stroke-width="2">
            <g id="Group-7" transform="translate(139.000000, 554.000000)">
                <g id="Form/Our-service/hover" transform="translate(547.000000, 56.000000)">
                    <g id="Form/our-service-Copy">
                        <g>
                            <g id="Form/our-service">
                                <g id="Service/icon/heart">
                                    <g id="Service/icon/eye">
                                        <path d="M57.682,0 L55,14" id="Shape"></path>
                                        <path d="M20,0 L22.682,14" id="Shape"></path>
                                        <path d="M57.586,74 L55,61" id="Shape"></path>
                                        <path d="M20,74 L22.586,61" id="Shape"></path>
                                        <path d="M39,4 L39,7" id="Shape"></path>
                                        <path d="M39,14 L39,17" id="Shape"></path>
                                        <path d="M39,24 L39,27" id="Shape"></path>
                                        <circle id="Oval" cx="39.5" cy="38.5" r="1.5"></circle>
                                        <path d="M28.8266171,11 C16.1889187,14.5652801 5.76056348,23.5103557 0.3140158,35.4571045 C-0.104671933,36.3567947 -0.104671933,37.3954285 0.3140158,38.2951187 C2.90483732,43.8728168 13.9802602,64 39,64 C64.0197398,64 75.0951627,43.8694261 77.6859842,38.291728 C78.1046719,37.3920378 78.1046719,36.353404 77.6859842,35.4537138 C72.2397801,23.5074072 61.8110804,14.5632763 49.1733829,11" id="Shape"></path>
                                        <path d="M25.833913,22 C19.4989322,27.5429234 17.3175521,36.335146 20.3502789,44.1022147 C23.3830057,51.8692834 31.0007314,57 39.5,57 C47.9992686,57 55.6169943,51.8692834 58.6497211,44.1022147 C61.6824479,36.335146 59.5010678,27.5429234 53.166087,22" id="Shape"></path>
                                        <path d="M30.7179401,34 C29.1532542,37.5877796 30.208089,41.787334 33.2785901,44.1945717 C36.3490911,46.6018094 40.6509089,46.6018094 43.7214099,44.1945717 C46.791911,41.787334 47.8467458,37.5877796 46.2820599,34" id="Shape"></path>
                                    </g>
                                </g>
                            </g>
                        </g>
                    </g>
                </g>
            </g>
        </g>
    </g>
</svg>