<?xml version="1.0" encoding="UTF-8"?>
<svg width="80px" height="75px" viewBox="0 0 80 75" version="1.1" xmlns="http://www.w3.org/2000/svg" xmlns:xlink="http://www.w3.org/1999/xlink">
    <!-- Generator: sketchtool 53.2 (72643) - https://sketchapp.com -->
    <title>BEC4EEC5-8067-4D9D-8DCE-A52BA6DE2D9E</title>
    <desc>Created with sketchtool.</desc>
    <g id="Page-1" stroke="none" stroke-width="1" fill="none" fill-rule="evenodd" stroke-linecap="round" stroke-linejoin="round">
        <g id="Services" transform="translate(-268.000000, -609.000000)" stroke="#2787A7" stroke-width="2">
            <g id="Group-7" transform="translate(139.000000, 554.000000)">
                <g id="Form/our-service" transform="translate(130.000000, 56.000000)">
                    <g id="Service/icon/heart">
                        <g>
                            <g id="Shape">
                                <path d="M0,43.6962514 L19.5,43.6962514 C20.0337189,43.6962514 20.5362904,43.4424308 20.8565217,43.0111485 L23.9968696,38.7840637 C24.3267084,38.3391746 24.8497633,38.0836155 25.3998237,38.0985952 C25.9498841,38.1135748 26.4585465,38.3972304 26.7641739,38.859425 L30.5963478,44.6827996 C30.9318675,45.190324 31.5093958,45.4791815 32.1123981,45.4410695 C32.7154003,45.4029576 33.2527754,45.0436342 33.5230435,44.4978218 L38.7456522,33.9472373 C39.0582028,33.3154042 39.7226856,32.942166 40.4189639,33.0073427 C41.1152422,33.0725194 41.700505,33.5627428 41.8927826,34.2418315 L46.2811304,49.7559865 C46.4725608,50.4354859 47.0573947,50.9265439 47.7537616,50.9924869 C48.4501285,51.0584298 49.1151313,50.685726 49.4282609,50.0540062 L52.0972174,44.6622465 C52.3837557,44.0814197 52.9706674,43.7140495 53.6131304,43.713379 L78,43.713379"></path>
                                <path d="M69.7907143,37 C72.4029348,31.8533316 73.8402725,26.1960734 74,20.4325527 C74,-5.43284879 42.5030476,-7.451218 38.5,18.4511869 C34.4969524,-7.451218 3,-5.43284879 3,22.4206464 C3.06424827,27.4334537 4.1104597,32.3856779 6.08004762,37"></path>
                                <path d="M14,51 C20.7715575,59.2974012 28.7834959,66.6082649 37.78129,72.700338 C38.4075215,73.1228223 39.2532661,73.0962407 39.8487826,72.6353572 C48.0551454,66.2285246 55.4847604,58.9719314 62,51"></path>
                            </g>
                        </g>
                    </g>
                </g>
            </g>
        </g>
    </g>
</svg>